<?xml version="1.0" encoding="utf-8"?>
<svg id="master-artboard" viewBox="0 0 1400 980" version="1.1" xmlns="http://www.w3.org/2000/svg" x="0px" y="0px" style="enable-background:new 0 0 1400 980;" width="1400px" height="980px"><defs><style id="ee-google-fonts">@import url(https://fonts.googleapis.com/css?family=Trocchi:400);</style></defs><rect id="ee-background" x="0" y="0" width="1400" height="980" style="fill: white; fill-opacity: 1; pointer-events: none;"/>

<path class="st0" d="M1119.1,767.4c7.9-4.9,18.1-7.7,29-7.7c10.8,0,21.1,2.7,29,7.7c-4.4,2.1-8.3,4.9-11.7,8.4&#10;&#9;&#9;&#9;c-0.2,0.2-0.4,0.4-0.5,0.5c-0.2,0.2-0.5,0.5-0.7,0.7c-0.3,0.3-0.6,0.6-0.8,0.9c-0.1,0.1-0.2,0.2-0.3,0.4&#10;&#9;&#9;&#9;c-4.8-1.1-9.8-1.6-14.9-1.6c-5.1,0-10.1,0.5-14.9,1.6c-0.1-0.1-0.2-0.2-0.3-0.4c-0.3-0.3-0.5-0.6-0.8-0.9&#10;&#9;&#9;&#9;c-0.2-0.3-0.5-0.5-0.7-0.8c-0.2-0.2-0.4-0.4-0.5-0.5C1127.3,772.4,1123.4,769.5,1119.1,767.4z" style="fill: rgb(172, 211, 110);" transform="matrix(0.9999999999999999, 0, 0, 0.9999999999999999, -952.294282852537, -662.3376001292777)"/><path class="st0" d="M1224.4,773.7c-17.6,0-31.9,14.3-31.9,31.9c0,17.6,14.3,31.9,31.9,31.9c17.6,0,31.9-14.3,31.9-31.9&#10;&#9;&#9;&#9;C1256.3,788.1,1242,773.7,1224.4,773.7z M1224.4,789.1c-9.1,0-16.5,7.4-16.5,16.5c0,2.9,0.8,5.7,2.2,8.2c0.9,1.6,0.4,3.7-1.2,4.6&#10;&#9;&#9;&#9;c-0.5,0.3-1.1,0.4-1.7,0.4c-1.2,0-2.3-0.6-2.9-1.7c-2-3.5-3.1-7.5-3.1-11.5c0-12.8,10.4-23.3,23.3-23.3c1.9,0,3.4,1.5,3.4,3.4&#10;&#9;&#9;&#9;C1227.7,787.6,1226.2,789.1,1224.4,789.1z" style="fill: rgb(172, 211, 110);" transform="matrix(0.9999999999999999, 0, 0, 0.9999999999999999, -952.294282852537, -662.3376001292777)"/><path class="st0" d="M1071.7,773.7c-17.6,0-31.9,14.3-31.9,31.9c0,17.6,14.3,31.9,31.9,31.9c17.6,0,31.9-14.3,31.9-31.9&#10;&#9;&#9;&#9;C1103.6,788.1,1089.3,773.7,1071.7,773.7z M1091.8,817.2c-0.6,1.1-1.8,1.7-2.9,1.7c-0.6,0-1.1-0.1-1.7-0.4c-1.6-0.9-2.2-3-1.2-4.6&#10;&#9;&#9;&#9;c1.4-2.5,2.2-5.3,2.2-8.2c0-9.1-7.4-16.5-16.5-16.5c-1.9,0-3.4-1.5-3.4-3.4c0-1.9,1.5-3.4,3.4-3.4c12.8,0,23.3,10.4,23.3,23.3&#10;&#9;&#9;&#9;C1094.9,809.7,1093.9,813.7,1091.8,817.2z" style="fill: rgb(172, 211, 110);" transform="matrix(0.9999999999999999, 0, 0, 0.9999999999999999, -952.294282852537, -662.3376001292777)"/><path class="st1" d="M1067.8,764.1c-21.3,0-38.7,17.3-38.7,38.7c0,21.3,17.3,38.7,38.7,38.7c21.3,0,38.7-17.3,38.7-38.7&#10;&#9;&#9;&#9;&#9;C1106.5,781.4,1089.1,764.1,1067.8,764.1z M1067.8,834.7c-17.6,0-31.9-14.3-31.9-31.9c0-17.6,14.3-31.9,31.9-31.9&#10;&#9;&#9;&#9;&#9;c17.6,0,31.9,14.3,31.9,31.9C1099.7,820.4,1085.4,834.7,1067.8,834.7z" style="fill: rgb(91, 80, 80);" transform="matrix(0.9999999999999999, 0, 0, 0.9999999999999999, -952.294282852535, -662.3376001292772)"/><path class="st1" d="M1067.8,779.5c-1.9,0-3.4,1.5-3.4,3.4c0,1.9,1.5,3.4,3.4,3.4c9.1,0,16.5,7.4,16.5,16.5&#10;&#9;&#9;&#9;&#9;c0,2.9-0.8,5.7-2.2,8.2c-0.9,1.6-0.4,3.7,1.2,4.6c0.5,0.3,1.1,0.4,1.7,0.4c1.2,0,2.3-0.6,2.9-1.7c2-3.5,3.1-7.5,3.1-11.5&#10;&#9;&#9;&#9;&#9;C1091,789.9,1080.6,779.5,1067.8,779.5z" style="fill: rgb(91, 80, 80);" transform="matrix(0.9999999999999999, 0, 0, 0.9999999999999999, -952.294282852535, -662.3376001292772)"/><path class="st1" d="M1220.5,746.1c-15,0-28.6,5.9-38.8,15.4c-0.3,0.1-0.6,0.1-0.9,0.2c-9.4-7.4-22.6-11.6-36.6-11.6&#10;&#9;&#9;&#9;&#9;c-14,0-27.3,4.2-36.6,11.6c-0.3-0.1-0.6-0.2-0.9-0.2c-10.1-9.5-23.8-15.4-38.8-15.4c-31.2,0-56.7,25.4-56.7,56.7&#10;&#9;&#9;&#9;&#9;c0,31.2,25.4,56.7,56.7,56.7c15,0,28.6-5.9,38.8-15.4c9-2.1,17.2-7.2,23-14.4c1.9-2.4,3.6-4.9,5-7.6c0,0,0,0,0.1,0h18.5&#10;&#9;&#9;&#9;&#9;c0.2,0,0.4,0,0.5-0.1c1.4,2.7,3,5.3,5,7.7c5.9,7.2,14,12.3,23,14.4c10.1,9.5,23.8,15.4,38.8,15.4c31.2,0,56.7-25.4,56.7-56.7&#10;&#9;&#9;&#9;&#9;C1277.2,771.5,1251.8,746.1,1220.5,746.1z M1151.1,789.9h-14c-0.9-2.9-2.2-5.7-3.7-8.3c3.5-0.6,7-0.9,10.7-0.9&#10;&#9;&#9;&#9;&#9;c3.6,0,7.2,0.3,10.7,0.9C1153.3,784.2,1152.1,787,1151.1,789.9z M1115.2,764.5c7.9-4.9,18.1-7.7,29-7.7c10.8,0,21.1,2.7,29,7.7&#10;&#9;&#9;&#9;&#9;c-4.4,2.1-8.3,4.9-11.7,8.4c-0.2,0.2-0.4,0.4-0.5,0.5c-0.2,0.2-0.5,0.5-0.7,0.7c-0.3,0.3-0.6,0.6-0.8,0.9&#10;&#9;&#9;&#9;&#9;c-0.1,0.1-0.2,0.2-0.3,0.4c-4.8-1.1-9.8-1.6-14.9-1.6s-10.1,0.5-14.9,1.6c-0.1-0.1-0.2-0.2-0.3-0.4c-0.3-0.3-0.5-0.6-0.8-0.9&#10;&#9;&#9;&#9;&#9;c-0.2-0.3-0.5-0.5-0.7-0.8c-0.2-0.2-0.4-0.4-0.5-0.5C1123.5,769.5,1119.5,766.6,1115.2,764.5z M1017.8,802.8&#10;&#9;&#9;&#9;&#9;c0-27.5,22.4-49.9,49.9-49.9c27.5,0,49.9,22.4,49.9,49.9c0,27.5-22.4,49.9-49.9,49.9C1040.3,852.7,1017.8,830.3,1017.8,802.8z&#10;&#9;&#9;&#9;&#9; M1115.8,833c5.1-8.1,8.1-17.3,8.6-27c0-0.2,0-0.4,0-0.6c0-0.9,0.1-1.8,0.1-2.6c0-0.9,0-1.8-0.1-2.6c0-0.2,0-0.4,0-0.6&#10;&#9;&#9;&#9;&#9;c-0.5-9.7-3.5-18.9-8.6-26.9c0.3,0.2,0.5,0.3,0.8,0.5c0.3,0.2,0.7,0.4,1,0.7c0.2,0.2,0.5,0.4,0.7,0.5&#10;&#9;&#9;&#9;&#9;c8.7,6.6,14.2,17.1,14.2,28.5C1132.5,815.2,1125.9,826.5,1115.8,833z M1137.3,815.2c1.2-4,1.9-8.2,1.9-12.5&#10;&#9;&#9;&#9;&#9;c0-2.1-0.2-4.1-0.5-6.2h10.9c-0.3,2-0.5,4.1-0.5,6.2c0,4.3,0.6,8.5,1.9,12.5H1137.3z M1155.8,802.8c0-11.4,5.5-21.9,14.2-28.5&#10;&#9;&#9;&#9;&#9;c0.2-0.2,0.5-0.4,0.7-0.5c0.3-0.2,0.6-0.4,1-0.7c0.3-0.2,0.5-0.3,0.8-0.5c-5.1,8-8,17.2-8.6,26.9c0,0.2,0,0.4,0,0.6&#10;&#9;&#9;&#9;&#9;c0,0.9-0.1,1.8-0.1,2.6c0,0.9,0,1.8,0.1,2.6c0,0.2,0,0.4,0,0.6c0.5,9.7,3.5,18.9,8.6,27C1162.4,826.5,1155.8,815.2,1155.8,802.8z&#10;&#9;&#9;&#9;&#9; M1220.5,852.7c-26.7,0-48.5-21-49.9-47.4c0,0,0,0,0,0c0-0.8-0.1-1.7-0.1-2.6c0-27.5,22.4-49.9,49.9-49.9&#10;&#9;&#9;&#9;&#9;c27.5,0,49.9,22.4,49.9,49.9C1270.5,830.3,1248,852.7,1220.5,852.7z" style="fill: rgb(91, 80, 80);" transform="matrix(0.9999999999999999, 0, 0, 0.9999999999999999, -952.294282852535, -662.3376001292772)"/><path class="st1" d="M1220.5,764.1c-21.3,0-38.7,17.3-38.7,38.7c0,21.3,17.3,38.7,38.7,38.7c21.3,0,38.7-17.3,38.7-38.7&#10;&#9;&#9;&#9;&#9;C1259.2,781.4,1241.8,764.1,1220.5,764.1z M1220.5,834.7c-17.6,0-31.9-14.3-31.9-31.9c0-17.6,14.3-31.9,31.9-31.9&#10;&#9;&#9;&#9;&#9;s31.9,14.3,31.9,31.9C1252.5,820.4,1238.1,834.7,1220.5,834.7z" style="fill: rgb(91, 80, 80);" transform="matrix(0.9999999999999999, 0, 0, 0.9999999999999999, -952.294282852535, -662.3376001292772)"/><path class="st1" d="M1220.5,779.5c-12.8,0-23.3,10.4-23.3,23.3c0,4,1.1,8,3.1,11.5c0.6,1.1,1.8,1.7,2.9,1.7&#10;&#9;&#9;&#9;&#9;c0.6,0,1.1-0.1,1.7-0.4c1.6-0.9,2.2-3,1.2-4.6c-1.4-2.5-2.2-5.3-2.2-8.2c0-9.1,7.4-16.5,16.5-16.5c1.9,0,3.4-1.5,3.4-3.4&#10;&#9;&#9;&#9;&#9;C1223.9,781,1222.4,779.5,1220.5,779.5z" style="fill: rgb(91, 80, 80);" transform="matrix(0.9999999999999999, 0, 0, 0.9999999999999999, -952.294282852535, -662.3376001292772)"/>
<path d="M 0.8799999952316284 0.6000003814697266 L 13.989999771118164 0.6000003814697266 L 13.989999771118164 1.3999996185302734 L 11.550000190734863 1.3999996185302734 L 11.550000190734863 14.420000076293945 L 19.90999984741211 14.420000076293945 L 19.90999984741211 1.3999996185302734 L 17.43000030517578 1.3999996185302734 L 17.43000030517578 0.6000003814697266 L 30.579999923706055 0.6000003814697266 L 30.579999923706055 1.3999996185302734 L 28.100000381469727 1.3999996185302734 L 28.100000381469727 29.200000762939453 L 30.579999923706055 29.200000762939453 L 30.579999923706055 30 L 17.43000030517578 30 L 17.43000030517578 29.200000762939453 L 19.90999984741211 29.200000762939453 L 19.90999984741211 15.510000228881836 L 11.550000190734863 15.510000228881836 L 11.550000190734863 29.200000762939453 L 13.989999771118164 29.200000762939453 L 13.989999771118164 30 L 0.8799999952316284 30 L 0.8799999952316284 29.200000762939453 L 3.359999895095825 29.200000762939453 L 3.359999895095825 1.3999996185302734 L 0.8799999952316284 1.3999996185302734 L 0.8799999952316284 0.6000003814697266 ZM 41.95799255371094 20.130001068115234 L 43.17799377441406 20.130001068115234 L 43.17799377441406 16.899999618530273 C 43.17799377441406 14.239999771118164 43.03132629394531 12.453332901000977 42.73799133300781 11.540000915527344 C 42.44466018676758 10.633333206176758 41.87799072265625 10.180000305175781 41.037994384765625 10.180000305175781 C 40.53132629394531 10.180000305175781 40.07466125488281 10.309999465942383 39.667991638183594 10.569999694824219 C 39.26132583618164 10.836666107177734 39.05799102783203 11.203332901000977 39.05799102783203 11.670000076293945 C 39.05799102783203 12.129999160766602 39.141326904296875 12.59666633605957 39.30799102783203 13.069999694824219 L 40.357994079589844 13.069999694824219 C 40.584659576416016 13.663333892822266 40.69799041748047 14.369999885559082 40.69799041748047 15.1899995803833 C 40.69799041748047 16.016666412353516 40.347991943359375 16.733333587646484 39.64799118041992 17.34000015258789 C 38.94799041748047 17.939998626708984 38.064659118652344 18.239999771118164 36.99799346923828 18.239999771118164 C 34.59132766723633 18.239999771118164 33.38799285888672 17.07666778564453 33.38799285888672 14.75 C 33.38799285888672 11.309999465942383 36.314659118652344 9.59000015258789 42.167991638183594 9.59000015258789 C 45.50132751464844 9.59000015258789 47.804656982421875 10.156665802001953 49.07799530029297 11.290000915527344 C 50.35132598876953 12.423334121704102 50.98799133300781 14.50333309173584 50.98799133300781 17.529998779296875 L 50.98799133300781 26.049999237060547 C 50.98799133300781 27.510000228881836 51.39466094970703 28.239999771118164 52.20799255371094 28.239999771118164 C 53.16132354736328 28.239999771118164 53.72132873535156 26.796667098999023 53.88799285888672 23.90999984741211 L 54.51799011230469 23.950000762939453 C 54.404659271240234 26.41666603088379 53.94132614135742 28.110000610351562 53.12799072265625 29.030000686645508 C 52.314659118652344 29.956666946411133 50.984657287597656 30.420000076293945 49.13799285888672 30.420000076293945 C 45.777992248535156 30.420000076293945 43.847991943359375 29.383333206176758 43.347991943359375 27.309999465942383 C 42.981327056884766 28.376667022705078 42.43465805053711 29.15999984741211 41.70799255371094 29.65999984741211 C 40.981327056884766 30.16666603088379 39.917991638183594 30.420000076293945 38.51799392700195 30.420000076293945 C 34.3713264465332 30.420000076293945 32.29799270629883 28.726667404174805 32.29799270629883 25.34000015258789 C 32.29799270629883 23.35333251953125 33.08799362182617 21.98666763305664 34.667991638183594 21.239999771118164 C 36.25465774536133 20.5 38.68465805053711 20.130001068115234 41.95799255371094 20.130001068115234 M 40.277992248535156 25.299999237060547 C 40.277992248535156 26.753334045410156 40.35466003417969 27.690000534057617 40.507991790771484 28.110000610351562 C 40.66132354736328 28.530000686645508 40.95465850830078 28.739999771118164 41.38799285888672 28.739999771118164 C 41.821327209472656 28.739999771118164 42.22799301147461 28.383333206176758 42.607994079589844 27.670000076293945 C 42.98799133300781 26.956666946411133 43.17799377441406 25.969999313354492 43.17799377441406 24.709999084472656 L 43.17799377441406 20.799999237060547 L 42.87799072265625 20.799999237060547 C 41.14466094970703 20.799999237060547 40.277992248535156 22.073333740234375 40.277992248535156 24.619998931884766 L 40.277992248535156 25.299999237060547 ZM 70.2659912109375 18.700000762939453 C 70.2659912109375 15.819999694824219 70.12599182128906 13.879999160766602 69.84599304199219 12.879999160766602 C 69.56599426269531 11.886667251586914 69.01932525634766 11.389999389648438 68.20599365234375 11.389999389648438 C 67.39265441894531 11.389999389648438 66.6659927368164 11.89666748046875 66.02599334716797 12.90999984741211 C 65.37932586669922 13.916666030883789 65.05599212646484 15.300000190734863 65.05599212646484 17.060001373291016 L 65.05599212646484 24.880001068115234 C 65.05599212646484 26.079999923706055 65.30265808105469 27.100000381469727 65.79598999023438 27.940000534057617 C 66.28265380859375 28.780000686645508 66.98265838623047 29.200000762939453 67.89598846435547 29.200000762939453 C 68.80265808105469 29.200000762939453 69.42599487304688 28.58333396911621 69.7659912109375 27.350000381469727 C 70.09932708740234 26.123332977294922 70.2659912109375 23.969999313354492 70.2659912109375 20.889999389648438 L 70.2659912109375 18.700000762939453 M 65.05599212646484 -1.5 L 65.05599212646484 13.200000762939453 C 66.1226577758789 10.793333053588867 67.94265747070312 9.59000015258789 70.5159912109375 9.59000015258789 C 75.75598907470703 9.59000015258789 78.37599182128906 13.076665878295898 78.37599182128906 20.049999237060547 C 78.37599182128906 23.60333251953125 77.65265655517578 26.219999313354492 76.20599365234375 27.899999618530273 C 74.7659912109375 29.579999923706055 72.6026611328125 30.420000076293945 69.71598815917969 30.420000076293945 C 68.26265716552734 30.420000076293945 67.15265655517578 30.196666717529297 66.38599395751953 29.75 C 65.61265563964844 29.303333282470703 65.08599090576172 28.559999465942383 64.80599212646484 27.520000457763672 L 64.5159912109375 30 L 54.93598937988281 30 L 54.93598937988281 29.239999771118164 L 57.24599075317383 29.239999771118164 L 57.24599075317383 -0.7399997711181641 L 54.93598937988281 -0.7399997711181641 L 54.93598937988281 -1.5 L 65.05599212646484 -1.5 ZM 85.80198669433594 7.1100006103515625 C 85.80198669433594 7.1100006103515625 85.43199157714844 7.1100006103515625 84.6919937133789 7.1100006103515625 C 83.95198822021484 7.1100006103515625 83.26531982421875 6.733333587646484 82.63198852539062 5.979999542236328 C 82.00532531738281 5.219999313354492 81.6919937133789 4.280000686645508 81.6919937133789 3.1599998474121094 C 81.6919937133789 2.0400009155273438 82.03532409667969 1.1166667938232422 82.72199249267578 0.3899993896484375 C 83.40866088867188 -0.3366661071777344 84.45198822021484 -0.7000007629394531 85.85198974609375 -0.7000007629394531 C 87.25199127197266 -0.7000007629394531 88.31532287597656 -0.3733329772949219 89.0419921875 0.2800006866455078 C 89.7686538696289 0.9400005340576172 90.13198852539062 1.8799991607666016 90.13198852539062 3.1000003814697266 C 90.13198852539062 4.319999694824219 89.78199005126953 5.293333053588867 89.08199310302734 6.020000457763672 C 88.38198852539062 6.746665954589844 87.28865814208984 7.1100006103515625 85.80198669433594 7.1100006103515625 M 79.46199035644531 10.010000228881836 L 89.75199127197266 10.010000228881836 L 89.75199127197266 29.239999771118164 L 92.10198974609375 29.239999771118164 L 92.10198974609375 30 L 79.63198852539062 30 L 79.63198852539062 29.239999771118164 L 81.9419937133789 29.239999771118164 L 81.9419937133789 10.760000228881836 L 79.46199035644531 10.760000228881836 L 79.46199035644531 10.010000228881836 ZM 92.77598571777344 -1.5 L 103.06598663330078 -1.5 L 103.06598663330078 29.239999771118164 L 105.41598510742188 29.239999771118164 L 105.41598510742188 30 L 92.94598388671875 30 L 92.94598388671875 29.239999771118164 L 95.25598907470703 29.239999771118164 L 95.25598907470703 -0.7399997711181641 L 92.77598571777344 -0.7399997711181641 L 92.77598571777344 -1.5 ZM 112.38796997070312 7.1100006103515625 C 112.38796997070312 7.1100006103515625 112.01797485351562 7.1100006103515625 111.2779769897461 7.1100006103515625 C 110.53797149658203 7.1100006103515625 109.85130310058594 6.733333587646484 109.21797180175781 5.979999542236328 C 108.59130859375 5.219999313354492 108.2779769897461 4.280000686645508 108.2779769897461 3.1599998474121094 C 108.2779769897461 2.0400009155273438 108.62130737304688 1.1166667938232422 109.30797576904297 0.3899993896484375 C 109.99464416503906 -0.3366661071777344 111.03797149658203 -0.7000007629394531 112.43797302246094 -0.7000007629394531 C 113.83797454833984 -0.7000007629394531 114.90130615234375 -0.3733329772949219 115.62797546386719 0.2800006866455078 C 116.3546371459961 0.9400005340576172 116.71797180175781 1.8799991607666016 116.71797180175781 3.1000003814697266 C 116.71797180175781 4.319999694824219 116.36797332763672 5.293333053588867 115.66797637939453 6.020000457763672 C 114.96797180175781 6.746665954589844 113.87464141845703 7.1100006103515625 112.38796997070312 7.1100006103515625 M 106.0479736328125 10.010000228881836 L 116.33797454833984 10.010000228881836 L 116.33797454833984 29.239999771118164 L 118.68797302246094 29.239999771118164 L 118.68797302246094 30 L 106.21797180175781 30 L 106.21797180175781 29.239999771118164 L 108.5279769897461 29.239999771118164 L 108.5279769897461 10.760000228881836 L 106.0479736328125 10.760000228881836 L 106.0479736328125 10.010000228881836 ZM 128.0619659423828 21.310001373291016 C 128.0619659423828 24.25 128.21530151367188 26.203332901000977 128.52197265625 27.170000076293945 C 128.82862854003906 28.1299991607666 129.3953094482422 28.610000610351562 130.2219696044922 28.610000610351562 C 131.0486297607422 28.610000610351562 131.761962890625 28.246665954589844 132.36196899414062 27.520000457763672 C 132.96197509765625 26.793333053588867 133.261962890625 25.71666717529297 133.261962890625 24.290000915527344 L 133.261962890625 15.130000114440918 C 133.261962890625 13.930000305175781 133.02529907226562 12.90999984741211 132.55197143554688 12.069999694824219 C 132.07862854003906 11.229999542236328 131.37863159179688 10.809999465942383 130.45196533203125 10.809999465942383 C 129.52529907226562 10.809999465942383 128.8953094482422 11.423334121704102 128.5619659423828 12.649999618530273 C 128.2286376953125 13.883333206176758 128.0619659423828 16.040000915527344 128.0619659423828 19.119998931884766 L 128.0619659423828 21.310001373291016 M 133.8119659423828 30 L 133.3519744873047 27.059999465942383 C 132.3986358642578 29.299999237060547 130.46530151367188 30.420000076293945 127.55197143554688 30.420000076293945 C 125.14530181884766 30.420000076293945 123.27529907226562 29.553333282470703 121.94197082519531 27.81999969482422 C 120.61530303955078 26.079999923706055 119.95196533203125 23.489999771118164 119.95196533203125 20.049999237060547 C 119.95196533203125 13.076665878295898 122.72530364990234 9.59000015258789 128.27197265625 9.59000015258789 C 130.73196411132812 9.59000015258789 132.3553009033203 10.276666641235352 133.1419677734375 11.649999618530273 L 133.1419677734375 -0.7399997711181641 L 130.58197021484375 -0.7399997711181641 L 130.58197021484375 -1.5 L 141.08197021484375 -1.5 L 141.08197021484375 29.239999771118164 L 143.13197326660156 29.239999771118164 L 143.13197326660156 30 L 133.8119659423828 30 ZM 154.30796813964844 20.130001068115234 L 155.52796936035156 20.130001068115234 L 155.52796936035156 16.899999618530273 C 155.52796936035156 14.239999771118164 155.3813018798828 12.453332901000977 155.0879669189453 11.540000915527344 C 154.7946319580078 10.633333206176758 154.22796630859375 10.180000305175781 153.38796997070312 10.180000305175781 C 152.8813018798828 10.180000305175781 152.4246368408203 10.309999465942383 152.01797485351562 10.569999694824219 C 151.61129760742188 10.836666107177734 151.40797424316406 11.203332901000977 151.40797424316406 11.670000076293945 C 151.40797424316406 12.129999160766602 151.49130249023438 12.59666633605957 151.65797424316406 13.069999694824219 L 152.7079620361328 13.069999694824219 C 152.93463134765625 13.663333892822266 153.0479736328125 14.369999885559082 153.0479736328125 15.1899995803833 C 153.0479736328125 16.016666412353516 152.69796752929688 16.733333587646484 151.9979705810547 17.34000015258789 C 151.2979736328125 17.939998626708984 150.41464233398438 18.239999771118164 149.34796142578125 18.239999771118164 C 146.94129943847656 18.239999771118164 145.7379608154297 17.07666778564453 145.7379608154297 14.75 C 145.7379608154297 11.309999465942383 148.66464233398438 9.59000015258789 154.51797485351562 9.59000015258789 C 157.85130310058594 9.59000015258789 160.15463256835938 10.156665802001953 161.42796325683594 11.290000915527344 C 162.7012939453125 12.423334121704102 163.3379669189453 14.50333309173584 163.3379669189453 17.529998779296875 L 163.3379669189453 26.049999237060547 C 163.3379669189453 27.510000228881836 163.74462890625 28.239999771118164 164.55796813964844 28.239999771118164 C 165.5113067626953 28.239999771118164 166.07130432128906 26.796667098999023 166.23797607421875 23.90999984741211 L 166.8679656982422 23.950000762939453 C 166.754638671875 26.41666603088379 166.2913055419922 28.110000610351562 165.47796630859375 29.030000686645508 C 164.66464233398438 29.956666946411133 163.3346405029297 30.420000076293945 161.48797607421875 30.420000076293945 C 158.12796020507812 30.420000076293945 156.19796752929688 29.383333206176758 155.69796752929688 27.309999465942383 C 155.331298828125 28.376667022705078 154.78463745117188 29.15999984741211 154.05796813964844 29.65999984741211 C 153.331298828125 30.16666603088379 152.26797485351562 30.420000076293945 150.8679656982422 30.420000076293945 C 146.72129821777344 30.420000076293945 144.64796447753906 28.726667404174805 144.64796447753906 25.34000015258789 C 144.64796447753906 23.35333251953125 145.43797302246094 21.98666763305664 147.01797485351562 21.239999771118164 C 148.60462951660156 20.5 151.03463745117188 20.130001068115234 154.30796813964844 20.130001068115234 M 152.62796020507812 25.299999237060547 C 152.62796020507812 26.753334045410156 152.7046356201172 27.690000534057617 152.85797119140625 28.110000610351562 C 153.0113067626953 28.530000686645508 153.3046417236328 28.739999771118164 153.73797607421875 28.739999771118164 C 154.17129516601562 28.739999771118164 154.57797241210938 28.383333206176758 154.9579620361328 27.670000076293945 C 155.3379669189453 26.956666946411133 155.52796936035156 25.969999313354492 155.52796936035156 24.709999084472656 L 155.52796936035156 20.799999237060547 L 155.22796630859375 20.799999237060547 C 153.49462890625 20.799999237060547 152.62796020507812 22.073333740234375 152.62796020507812 24.619998931884766 L 152.62796020507812 25.299999237060547 ZM 175.8159637451172 21.310001373291016 C 175.8159637451172 24.25 175.96929931640625 26.203332901000977 176.27597045898438 27.170000076293945 C 176.58262634277344 28.1299991607666 177.14930725097656 28.610000610351562 177.97596740722656 28.610000610351562 C 178.80262756347656 28.610000610351562 179.51596069335938 28.246665954589844 180.115966796875 27.520000457763672 C 180.71597290039062 26.793333053588867 181.01596069335938 25.71666717529297 181.01596069335938 24.290000915527344 L 181.01596069335938 15.130000114440918 C 181.01596069335938 13.930000305175781 180.779296875 12.90999984741211 180.30596923828125 12.069999694824219 C 179.83262634277344 11.229999542236328 179.13262939453125 10.809999465942383 178.20596313476562 10.809999465942383 C 177.279296875 10.809999465942383 176.64930725097656 11.423334121704102 176.3159637451172 12.649999618530273 C 175.98263549804688 13.883333206176758 175.8159637451172 16.040000915527344 175.8159637451172 19.119998931884766 L 175.8159637451172 21.310001373291016 M 181.5659637451172 30 L 181.10597229003906 27.059999465942383 C 180.1526336669922 29.299999237060547 178.21929931640625 30.420000076293945 175.30596923828125 30.420000076293945 C 172.89930725097656 30.420000076293945 171.029296875 29.553333282470703 169.6959686279297 27.81999969482422 C 168.36929321289062 26.079999923706055 167.70596313476562 23.489999771118164 167.70596313476562 20.049999237060547 C 167.70596313476562 13.076665878295898 170.4792938232422 9.59000015258789 176.02597045898438 9.59000015258789 C 178.4859619140625 9.59000015258789 180.1092987060547 10.276666641235352 180.89596557617188 11.649999618530273 L 180.89596557617188 -0.7399997711181641 L 178.33596801757812 -0.7399997711181641 L 178.33596801757812 -1.5 L 188.83596801757812 -1.5 L 188.83596801757812 29.239999771118164 L 190.88597106933594 29.239999771118164 L 190.88597106933594 30 L 181.5659637451172 30 ZM 203.03196716308594 30.420000076293945 C 199.41864013671875 30.420000076293945 196.70863342285156 29.489999771118164 194.90196228027344 27.630001068115234 C 193.09530639648438 25.76333236694336 192.1919708251953 23.17333221435547 192.1919708251953 19.860000610351562 C 192.1919708251953 16.540000915527344 193.20863342285156 13.996665954589844 195.24195861816406 12.229999542236328 C 197.2686309814453 10.469999313354492 199.8486328125 9.59000015258789 202.98196411132812 9.59000015258789 C 209.3419647216797 9.59000015258789 212.39529418945312 12.780000686645508 212.1419677734375 19.15999984741211 L 200.30197143554688 19.15999984741211 L 200.30197143554688 20.799999237060547 C 200.30197143554688 23.546667098999023 200.65196228027344 25.619998931884766 201.35195922851562 27.020000457763672 C 202.05197143554688 28.420000076293945 203.2686309814453 29.1200008392334 205.00196838378906 29.1200008392334 C 208.24862670898438 29.1200008392334 210.37530517578125 27.383333206176758 211.3819580078125 23.90999984741211 L 212.1419677734375 24.040000915527344 C 211.60862731933594 26.053333282470703 210.6486358642578 27.619998931884766 209.261962890625 28.739999771118164 C 207.87530517578125 29.860000610351562 205.7986297607422 30.420000076293945 203.03196716308594 30.420000076293945 M 200.3419647216797 18.31999969482422 L 204.66197204589844 18.31999969482422 L 204.66197204589844 16.270000457763672 C 204.66197204589844 13.996665954589844 204.53196716308594 12.446666717529297 204.27197265625 11.620000839233398 C 204.0052947998047 10.799999237060547 203.4719696044922 10.389999389648438 202.67196655273438 10.389999389648438 C 201.87196350097656 10.389999389648438 201.28529357910156 10.829999923706055 200.91197204589844 11.709999084472656 C 200.53196716308594 12.59000015258789 200.3419647216797 14.109999656677246 200.3419647216797 16.270000457763672 L 200.3419647216797 18.31999969482422 ZM 214.20396423339844 30.420000076293945 L 214.20396423339844 22.899999618530273 L 214.70396423339844 22.899999618530273 C 215.43063354492188 25.34000015258789 216.41062927246094 27.049999237060547 217.6439666748047 28.030000686645508 C 218.87730407714844 29.010000228881836 220.41729736328125 29.5 222.2639617919922 29.5 C 225.11729431152344 29.5 226.54396057128906 28.59000015258789 226.54396057128906 26.770000457763672 C 226.54396057128906 25.983333587646484 226.1939697265625 25.393333435058594 225.49395751953125 25 C 224.4073028564453 24.386667251586914 223.00729370117188 23.90999984741211 221.29396057128906 23.56999969482422 C 219.3939666748047 23.06999969482422 217.80062866210938 22.399999618530273 216.5139617919922 21.560001373291016 C 214.97396850585938 20.553333282470703 214.20396423339844 18.956666946411133 214.20396423339844 16.770000457763672 C 214.20396423339844 14.583333015441895 214.87396240234375 12.84000015258789 216.21395874023438 11.540000915527344 C 217.56063842773438 10.239999771118164 219.3539581298828 9.59000015258789 221.59396362304688 9.59000015258789 C 222.96730041503906 9.59000015258789 224.38063049316406 9.90999984741211 225.83396911621094 10.549999237060547 C 226.36729431152344 10.776666641235352 226.7739715576172 10.889999389648438 227.05397033691406 10.889999389648438 C 227.33396911621094 10.889999389648438 227.5706329345703 10.793333053588867 227.7639617919922 10.600000381469727 C 227.96395874023438 10.399999618530273 228.20396423339844 10.033332824707031 228.4839630126953 9.5 L 228.9439697265625 9.5 L 228.9439697265625 15.930000305175781 L 228.4339599609375 15.930000305175781 C 227.00729370117188 12.290000915527344 224.79730224609375 10.469999313354492 221.80397033691406 10.469999313354492 C 220.4839630126953 10.469999313354492 219.50396728515625 10.700000762939453 218.8639678955078 11.15999984741211 C 218.21730041503906 11.626667022705078 217.8939666748047 12.209999084472656 217.8939666748047 12.90999984741211 C 217.8939666748047 13.329999923706055 217.99395751953125 13.656665802001953 218.1939697265625 13.889999389648438 C 218.38729858398438 14.130000114440918 218.54063415527344 14.306666374206543 218.65396118164062 14.420000076293945 C 218.76730346679688 14.533333778381348 218.94729614257812 14.649999618530273 219.1939697265625 14.770000457763672 C 219.44729614257812 14.896666526794434 219.6573028564453 14.99666690826416 219.82395935058594 15.069999694824219 C 219.99729919433594 15.136666297912598 220.25729370117188 15.226666450500488 220.6039581298828 15.34000015258789 C 220.95730590820312 15.453332901000977 221.21730041503906 15.523333549499512 221.38397216796875 15.550000190734863 C 223.28396606445312 16.029998779296875 224.65396118164062 16.44333267211914 225.49395751953125 16.790000915527344 C 226.33396911621094 17.143333435058594 227.13397216796875 17.56999969482422 227.8939666748047 18.06999969482422 C 229.4339599609375 19.13666534423828 230.20396423339844 20.85333251953125 230.20396423339844 23.219999313354492 C 230.20396423339844 25.586666107177734 229.50396728515625 27.376667022705078 228.1039581298828 28.59000015258789 C 226.70396423339844 29.809999465942383 224.78396606445312 30.420000076293945 222.34396362304688 30.420000076293945 C 220.61062622070312 30.420000076293945 218.93063354492188 30.013334274291992 217.30397033691406 29.200000762939453 C 216.9706268310547 28.979999542236328 216.70730590820312 28.8700008392334 216.5139617919922 28.8700008392334 C 215.8939666748047 28.8700008392334 215.29063415527344 29.386667251586914 214.70396423339844 30.420000076293945 L 214.20396423339844 30.420000076293945 Z" transform="matrix(1.4718613624572754, 0, 0, 1.4718613624572754, 31.039026260375977, 26.363649368286133)" style="fill: rgb(51, 51, 51); white-space: pre; color: rgb(51, 51, 51);"/><path d="M 5.960000038146973 16.31999969482422 L 8.65999984741211 16.31999969482422 L 8.65999984741211 18 L 0.3499999940395355 18 L 0.3499999940395355 16.31999969482422 L 3.2100000381469727 16.31999969482422 L 3.2100000381469727 2.0399999618530273 L 0.3499999940395355 2.0399999618530273 L 0.3499999940395355 0.3600006103515625 L 8.65999984741211 0.3600006103515625 L 8.65999984741211 2.0399999618530273 L 5.960000038146973 2.0399999618530273 L 5.960000038146973 16.31999969482422 ZM 16.521717071533203 18 L 9.581716537475586 18 L 9.581716537475586 16.690000534057617 L 11.871716499328613 16.690000534057617 L 11.871716499328613 6.739999771118164 L 9.581716537475586 6.739999771118164 L 9.581716537475586 5.430000305175781 L 14.031717300415039 5.229999542236328 L 14.32171630859375 7.779999732971191 C 14.701717376708984 6.9066667556762695 15.288383483886719 6.239999771118164 16.081716537475586 5.779999732971191 C 16.875049591064453 5.319999694824219 17.678382873535156 5.090000152587891 18.491716384887695 5.090000152587891 C 18.72504997253418 5.090000152587891 18.948383331298828 5.100000381469727 19.16171646118164 5.119999885559082 C 19.368383407592773 5.146666526794434 19.608383178710938 5.199999809265137 19.881717681884766 5.279999732971191 C 20.14838409423828 5.359999656677246 20.395050048828125 5.466666221618652 20.621715545654297 5.600000381469727 C 20.841716766357422 5.726666450500488 21.06505012512207 5.9066667556762695 21.291717529296875 6.140000343322754 C 21.518383026123047 6.373332977294922 21.708383560180664 6.646666526794434 21.861717224121094 6.960000038146973 C 22.01504898071289 7.266666412353516 22.138383865356445 7.649999618530273 22.23171615600586 8.109999656677246 C 22.331716537475586 8.569999694824219 22.381717681884766 9.079999923706055 22.381717681884766 9.640000343322754 L 22.381717681884766 16.690000534057617 L 24.78171730041504 16.690000534057617 L 24.78171730041504 18 L 17.721717834472656 18 L 17.721717834472656 16.690000534057617 L 19.861717224121094 16.690000534057617 L 19.861717224121094 9.670000076293945 C 19.861717224121094 8.649999618530273 19.66171646118164 7.899999618530273 19.261716842651367 7.420000076293945 C 18.868383407592773 6.933333396911621 18.32171630859375 6.689999580383301 17.621715545654297 6.689999580383301 C 17.168384552001953 6.689999580383301 16.75838279724121 6.773333549499512 16.39171600341797 6.939999580383301 C 16.02505111694336 7.113333702087402 15.7183837890625 7.340000152587891 15.47171688079834 7.619999885559082 C 15.22504997253418 7.9066667556762695 15.021717071533203 8.243332862854004 14.861717224121094 8.630000114440918 C 14.695050239562988 9.016666412353516 14.575050354003906 9.416666984558105 14.501716613769531 9.829999923706055 C 14.428382873535156 10.24333381652832 14.391716957092285 10.676666259765625 14.391716957092285 11.130000114440918 L 14.391716957092285 16.690000534057617 L 16.521717071533203 16.690000534057617 L 16.521717071533203 18 ZM 24.707494735717773 6.189999580383301 C 25.3074951171875 6.010000228881836 25.850828170776367 5.686666488647461 26.337493896484375 5.220000267028809 C 26.824161529541016 4.75333309173584 27.214160919189453 4.25333309173584 27.50749397277832 3.7200002670288086 C 27.800827026367188 3.186666488647461 28.060827255249023 2.663332939147949 28.287494659423828 2.1499996185302734 C 28.50749397277832 1.636667251586914 28.700828552246094 1.2099990844726562 28.867494583129883 0.8700008392333984 C 29.034160614013672 0.5300006866455078 29.180828094482422 0.3600006103515625 29.3074951171875 0.3600006103515625 C 29.394161224365234 0.3600006103515625 29.46749496459961 0.39666748046875 29.527494430541992 0.4699993133544922 C 29.587493896484375 0.5366668701171875 29.617494583129883 0.6366672515869141 29.617494583129883 0.7700004577636719 L 29.617494583129883 5.430000305175781 L 34.22749328613281 5.430000305175781 L 34.22749328613281 6.760000228881836 L 29.617494583129883 6.760000228881836 L 29.617494583129883 14.609999656677246 C 29.617494583129883 15.296667098999023 29.770828247070312 15.813333511352539 30.07749366760254 16.15999984741211 C 30.390827178955078 16.50666618347168 30.8074951171875 16.68000030517578 31.32749366760254 16.68000030517578 C 31.947494506835938 16.68000030517578 32.41749572753906 16.47333335876465 32.73749542236328 16.059999465942383 C 33.06416320800781 15.65333366394043 33.22749328613281 14.933333396911621 33.22749328613281 13.899999618530273 L 33.22749328613281 12.210000038146973 L 34.62749481201172 12.210000038146973 L 34.62749481201172 13.649999618530273 C 34.62749481201172 15.196666717529297 34.35416030883789 16.360000610351562 33.8074951171875 17.139999389648438 C 33.2541618347168 17.926666259765625 32.280826568603516 18.31999969482422 30.887493133544922 18.31999969482422 C 30.407493591308594 18.31999969482422 29.94416046142578 18.24333381652832 29.497493743896484 18.09000015258789 C 29.0574951171875 17.94333267211914 28.657493591308594 17.72333335876465 28.297494888305664 17.43000030517578 C 27.930828094482422 17.1299991607666 27.637495040893555 16.733333587646484 27.41749382019043 16.239999771118164 C 27.204160690307617 15.739999771118164 27.09749412536621 15.173333168029785 27.09749412536621 14.539999961853027 L 27.09749412536621 6.739999771118164 L 24.707494735717773 6.739999771118164 L 24.707494735717773 6.189999580383301 ZM 39.0206184387207 10.280000686645508 L 45.40061950683594 10.280000686645508 C 45.36728286743164 9.146666526794434 45.05728530883789 8.229999542236328 44.470619201660156 7.529999732971191 C 43.87728500366211 6.829999923706055 43.15394973754883 6.479999542236328 42.30061721801758 6.479999542236328 C 41.44728469848633 6.479999542236328 40.71061706542969 6.829999923706055 40.09061813354492 7.529999732971191 C 39.470619201660156 8.229999542236328 39.11395263671875 9.146666526794434 39.0206184387207 10.280000686645508 M 36.260616302490234 11.869999885559082 C 36.260616302490234 11.170000076293945 36.34061813354492 10.486666679382324 36.50061798095703 9.819999694824219 C 36.66728210449219 9.15333366394043 36.91728210449219 8.536666870117188 37.25061798095703 7.970000267028809 C 37.59061813354492 7.396666526794434 37.99394989013672 6.896666526794434 38.46061706542969 6.470000267028809 C 38.927284240722656 6.0366668701171875 39.48728561401367 5.699999809265137 40.14061737060547 5.460000038146973 C 40.78728485107422 5.2133331298828125 41.483951568603516 5.090000152587891 42.23061752319336 5.090000152587891 C 43.030616760253906 5.090000152587891 43.773948669433594 5.229999542236328 44.46061706542969 5.510000228881836 C 45.14728546142578 5.789999961853027 45.75061798095703 6.196666717529297 46.2706184387207 6.729999542236328 C 46.78395080566406 7.270000457763672 47.19395065307617 7.949999809265137 47.50061798095703 8.770000457763672 C 47.80061721801758 9.59666633605957 47.96061706542969 10.520000457763672 47.98061752319336 11.539999961853027 L 38.940616607666016 11.539999961853027 L 38.940616607666016 11.639999389648438 C 38.940616607666016 12.30666732788086 39.01395034790039 12.930000305175781 39.16061782836914 13.510000228881836 C 39.30061721801758 14.09000015258789 39.51728439331055 14.609999656677246 39.81061553955078 15.069999694824219 C 40.09728240966797 15.529999732971191 40.48061752319336 15.893333435058594 40.96061706542969 16.15999984741211 C 41.440616607666016 16.426666259765625 41.99394989013672 16.559999465942383 42.6206169128418 16.559999465942383 C 43.43395233154297 16.559999465942383 44.19728469848633 16.30666732788086 44.91061782836914 15.800000190734863 C 45.62395095825195 15.293333053588867 46.10728454589844 14.576666831970215 46.360618591308594 13.649999618530273 L 47.73061752319336 14.09000015258789 C 47.4239501953125 15.376667022705078 46.803951263427734 16.40333366394043 45.8706169128418 17.170000076293945 C 44.93061828613281 17.93666648864746 43.76395034790039 18.31999969482422 42.3706169128418 18.31999969482422 C 41.41728210449219 18.31999969482422 40.54728317260742 18.136667251586914 39.760616302490234 17.770000457763672 C 38.97394943237305 17.40999984741211 38.32728576660156 16.9233341217041 37.82061767578125 16.309999465942383 C 37.32061767578125 15.703332901000977 36.93395233154297 15.020000457763672 36.66061782836914 14.260000228881836 C 36.393951416015625 13.49333381652832 36.260616302490234 12.696666717529297 36.260616302490234 11.869999885559082 ZM 56.441864013671875 18 L 48.99186325073242 18 L 48.99186325073242 16.690000534057617 L 51.281864166259766 16.690000534057617 L 51.281864166259766 6.739999771118164 L 48.99186325073242 6.739999771118164 L 48.99186325073242 5.430000305175781 L 53.441864013671875 5.229999542236328 L 53.751861572265625 7.970000267028809 C 53.84519577026367 7.649999618530273 53.97853088378906 7.3333330154418945 54.15186309814453 7.020000457763672 C 54.3251953125 6.706666946411133 54.545196533203125 6.396666526794434 54.81186294555664 6.090000152587891 C 55.08519744873047 5.789999961853027 55.4218635559082 5.546667098999023 55.82186508178711 5.359999656677246 C 56.22186279296875 5.180000305175781 56.658531188964844 5.090000152587891 57.13186264038086 5.090000152587891 C 57.76519775390625 5.090000152587891 58.308528900146484 5.263333320617676 58.761863708496094 5.609999656677246 C 59.22186279296875 5.9633331298828125 59.45186233520508 6.460000038146973 59.45186233520508 7.100000381469727 C 59.45186233520508 7.7133331298828125 59.27186584472656 8.186666488647461 58.911865234375 8.520000457763672 C 58.558528900146484 8.853333473205566 58.13853073120117 9.020000457763672 57.65186309814453 9.020000457763672 C 57.19853210449219 9.020000457763672 56.808528900146484 8.880000114440918 56.48186492919922 8.600000381469727 C 56.15519714355469 8.319999694824219 55.99186325073242 7.939999580383301 55.99186325073242 7.460000038146973 C 55.99186325073242 7.300000190734863 56.031864166259766 7.133333206176758 56.11186218261719 6.960000038146973 C 56.18519592285156 6.7866668701171875 56.261863708496094 6.65333366394043 56.34186553955078 6.560000419616699 L 56.47186279296875 6.430000305175781 C 56.00519561767578 6.430000305175781 55.59186553955078 6.576666831970215 55.23186492919922 6.869999885559082 C 54.871864318847656 7.163332939147949 54.59186553955078 7.553333282470703 54.39186477661133 8.039999961853027 C 54.191864013671875 8.526666641235352 54.045196533203125 9.039999961853027 53.95186233520508 9.579999923706055 C 53.851863861083984 10.119999885559082 53.80186462402344 10.680000305175781 53.80186462402344 11.260000228881836 L 53.80186462402344 16.690000534057617 L 56.441864013671875 16.690000534057617 L 56.441864013671875 18 ZM 63.09092330932617 10.280000686645508 L 69.4709243774414 10.280000686645508 C 69.43759155273438 9.146666526794434 69.1275863647461 8.229999542236328 68.54092407226562 7.529999732971191 C 67.94758605957031 6.829999923706055 67.22425842285156 6.479999542236328 66.37092590332031 6.479999542236328 C 65.51758575439453 6.479999542236328 64.78092193603516 6.829999923706055 64.16091918945312 7.529999732971191 C 63.540924072265625 8.229999542236328 63.18425750732422 9.146666526794434 63.09092330932617 10.280000686645508 M 60.3309211730957 11.869999885559082 C 60.3309211730957 11.170000076293945 60.41092300415039 10.486666679382324 60.5709228515625 9.819999694824219 C 60.737586975097656 9.15333366394043 60.987586975097656 8.536666870117188 61.3209228515625 7.970000267028809 C 61.66092300415039 7.396666526794434 62.06425476074219 6.896666526794434 62.530921936035156 6.470000267028809 C 62.997589111328125 6.0366668701171875 63.55759048461914 5.699999809265137 64.21092224121094 5.460000038146973 C 64.85758972167969 5.2133331298828125 65.55425262451172 5.090000152587891 66.30091857910156 5.090000152587891 C 67.10092163085938 5.090000152587891 67.84425354003906 5.229999542236328 68.53092193603516 5.510000228881836 C 69.21759033203125 5.789999961853027 69.8209228515625 6.196666717529297 70.3409194946289 6.729999542236328 C 70.85425567626953 7.270000457763672 71.26425170898438 7.949999809265137 71.5709228515625 8.770000457763672 C 71.87092590332031 9.59666633605957 72.03092193603516 10.520000457763672 72.05091857910156 11.539999961853027 L 63.010921478271484 11.539999961853027 L 63.010921478271484 11.639999389648438 C 63.010921478271484 12.30666732788086 63.08425521850586 12.930000305175781 63.23092269897461 13.510000228881836 C 63.37092208862305 14.09000015258789 63.587589263916016 14.609999656677246 63.88092041015625 15.069999694824219 C 64.16758728027344 15.529999732971191 64.55091857910156 15.893333435058594 65.03092193603516 16.15999984741211 C 65.51092529296875 16.426666259765625 66.06425476074219 16.559999465942383 66.69092559814453 16.559999465942383 C 67.50425720214844 16.559999465942383 68.26758575439453 16.30666732788086 68.98092651367188 15.800000190734863 C 69.69425964355469 15.293333053588867 70.1775894165039 14.576666831970215 70.43092346191406 13.649999618530273 L 71.80091857910156 14.09000015258789 C 71.49425506591797 15.376667022705078 70.87425231933594 16.40333366394043 69.94091796875 17.170000076293945 C 69.00092315673828 17.93666648864746 67.83425903320312 18.31999969482422 66.44092559814453 18.31999969482422 C 65.48758697509766 18.31999969482422 64.61759185791016 18.136667251586914 63.8309211730957 17.770000457763672 C 63.044254302978516 17.40999984741211 62.39759063720703 16.9233341217041 61.89092254638672 16.309999465942383 C 61.39092254638672 15.703332901000977 61.00425720214844 15.020000457763672 60.73092269897461 14.260000228881836 C 60.464256286621094 13.49333381652832 60.3309211730957 12.696666717529297 60.3309211730957 11.869999885559082 ZM 78.95748138427734 18.31999969482422 C 78.35081481933594 18.31999969482422 77.76081848144531 18.260000228881836 77.18748474121094 18.139999389648438 C 76.61415100097656 18.020000457763672 76.07081604003906 17.843334197998047 75.55748748779297 17.610000610351562 C 75.04415130615234 17.3700008392334 74.6341552734375 17.036666870117188 74.32748413085938 16.610000610351562 C 74.02082061767578 16.183332443237305 73.86748504638672 15.696666717529297 73.86748504638672 15.149999618530273 C 73.86748504638672 14.643333435058594 74.02748107910156 14.226666450500488 74.34748840332031 13.899999618530273 C 74.66748809814453 13.573333740234375 75.04081726074219 13.40999984741211 75.46748352050781 13.40999984741211 C 75.90748596191406 13.40999984741211 76.28081512451172 13.530000686645508 76.58748626708984 13.770000457763672 C 76.89414978027344 14.010000228881836 77.0474853515625 14.359999656677246 77.0474853515625 14.819999694824219 C 77.0474853515625 15.220000267028809 76.93081665039062 15.550000190734863 76.6974868774414 15.809999465942383 C 76.46414947509766 16.0766658782959 76.1974868774414 16.209999084472656 75.8974838256836 16.209999084472656 C 76.1974868774414 16.43000030517578 76.6041488647461 16.610000610351562 77.11748504638672 16.75 C 77.63082122802734 16.89666748046875 78.14414978027344 16.969999313354492 78.65748596191406 16.969999313354492 C 79.25748443603516 16.969999313354492 79.79415130615234 16.90999984741211 80.26748657226562 16.790000915527344 C 80.74081420898438 16.676666259765625 81.14414978027344 16.459999084472656 81.47748565673828 16.139999389648438 C 81.8174819946289 15.819999694824219 81.98748779296875 15.40999984741211 81.98748779296875 14.90999984741211 C 81.98748779296875 14.529999732971191 81.87081909179688 14.193333625793457 81.63748168945312 13.899999618530273 C 81.41082000732422 13.606666564941406 81.10748291015625 13.376667022705078 80.72748565673828 13.210000038146973 C 80.3541488647461 13.036666870117188 79.92748260498047 12.866666793823242 79.4474868774414 12.699999809265137 C 78.96748352050781 12.533332824707031 78.47748565673828 12.383333206176758 77.97748565673828 12.25 C 77.47748565673828 12.123332977294922 76.98748779296875 11.956666946411133 76.50748443603516 11.75 C 76.02748107910156 11.543333053588867 75.60081481933594 11.313333511352539 75.22748565673828 11.059999465942383 C 74.84748840332031 10.813333511352539 74.54415130615234 10.483333587646484 74.3174819946289 10.069999694824219 C 74.08415222167969 9.66333293914795 73.96748352050781 9.193333625793457 73.96748352050781 8.65999984741211 C 73.96748352050781 8.126667022705078 74.08415222167969 7.649999618530273 74.3174819946289 7.229999542236328 C 74.54415130615234 6.810000419616699 74.83415222167969 6.470000267028809 75.18748474121094 6.210000038146973 C 75.54081726074219 5.943333625793457 75.94415283203125 5.723333358764648 76.3974838256836 5.550000190734863 C 76.85081481933594 5.376667022705078 77.28414916992188 5.256667137145996 77.6974868774414 5.189999580383301 C 78.1108169555664 5.123332977294922 78.50748443603516 5.090000152587891 78.88748168945312 5.090000152587891 C 79.45415496826172 5.090000152587891 80.02415466308594 5.149999618530273 80.59748840332031 5.270000457763672 C 81.17082214355469 5.396666526794434 81.70414733886719 5.576666831970215 82.1974868774414 5.810000419616699 C 82.6974868774414 6.0366668701171875 83.1041488647461 6.336667060852051 83.41748046875 6.710000038146973 C 83.73081970214844 7.090000152587891 83.88748168945312 7.506667137145996 83.88748168945312 7.960000038146973 C 83.88748168945312 8.479999542236328 83.7341537475586 8.90333366394043 83.42748260498047 9.229999542236328 C 83.12748718261719 9.550000190734863 82.77415466308594 9.710000038146973 82.36748504638672 9.710000038146973 C 81.92748260498047 9.710000038146973 81.55081939697266 9.576666831970215 81.23748779296875 9.3100004196167 C 80.92414855957031 9.043333053588867 80.76748657226562 8.673333168029785 80.76748657226562 8.199999809265137 C 80.76748657226562 7.973333358764648 80.82415008544922 7.766666412353516 80.93748474121094 7.579999923706055 C 81.05081939697266 7.393333435058594 81.1541519165039 7.263333320617676 81.24748229980469 7.189999580383301 C 81.3408203125 7.116666793823242 81.47748565673828 7.020000457763672 81.65748596191406 6.899999618530273 C 80.8841552734375 6.526666641235352 80.00748443603516 6.340000152587891 79.02748107910156 6.340000152587891 C 78.22748565673828 6.340000152587891 77.5474853515625 6.516666412353516 76.98748779296875 6.869999885559082 C 76.43415069580078 7.216666221618652 76.15748596191406 7.7133331298828125 76.15748596191406 8.359999656677246 C 76.15748596191406 8.65999984741211 76.27415466308594 8.930000305175781 76.50748443603516 9.170000076293945 C 76.7341537475586 9.40999984741211 77.03748321533203 9.600000381469727 77.41748809814453 9.739999771118164 C 77.7974853515625 9.886666297912598 78.22748565673828 10.039999961853027 78.70748138427734 10.199999809265137 C 79.18748474121094 10.360000610351562 79.68081665039062 10.510000228881836 80.18748474121094 10.649999618530273 C 80.70082092285156 10.783332824707031 81.1974868774414 10.966667175292969 81.67748260498047 11.199999809265137 C 82.15748596191406 11.426666259765625 82.58748626708984 11.676666259765625 82.96748352050781 11.949999809265137 C 83.3408203125 12.223333358764648 83.64414978027344 12.583333969116211 83.87748718261719 13.030000686645508 C 84.1108169555664 13.476666450500488 84.22748565673828 13.979999542236328 84.22748565673828 14.539999961853027 C 84.22748565673828 15.113332748413086 84.12081909179688 15.623332977294922 83.90748596191406 16.06999969482422 C 83.70082092285156 16.510000228881836 83.43081665039062 16.8700008392334 83.09748840332031 17.149999618530273 C 82.76415252685547 17.43000030517578 82.36415100097656 17.65999984741211 81.8974838256836 17.84000015258789 C 81.43081665039062 18.020000457763672 80.95748901367188 18.143333435058594 80.47748565673828 18.209999084472656 C 79.99748229980469 18.28333282470703 79.49081420898438 18.31999969482422 78.95748138427734 18.31999969482422 ZM 97.54998779296875 2.0399999618530273 L 96.74998474121094 2.0399999618530273 L 96.74998474121094 8.569999694824219 L 98.3799819946289 8.569999694824219 C 101.6733169555664 8.569999694824219 103.31998443603516 7.456666946411133 103.31998443603516 5.229999542236328 C 103.31998443603516 4.883333206176758 103.28665161132812 4.569999694824219 103.21998596191406 4.289999961853027 C 103.15998840332031 4.010000228881836 103.07665252685547 3.7666664123535156 102.96998596191406 3.560000419616699 C 102.86998748779297 3.3533334732055664 102.72665405273438 3.1700000762939453 102.53998565673828 3.010000228881836 C 102.35331726074219 2.8500003814697266 102.16998291015625 2.7166662216186523 101.98998260498047 2.609999656677246 C 101.80998229980469 2.50333309173584 101.57998657226562 2.413332939147949 101.29998779296875 2.3400001525878906 C 101.01998901367188 2.2733335494995117 100.7599868774414 2.2200002670288086 100.51998901367188 2.1800003051757812 C 100.27998352050781 2.140000343322754 99.98332214355469 2.109999656677246 99.6299819946289 2.0900001525878906 C 99.26998901367188 2.0699996948242188 98.95331573486328 2.056666374206543 98.67998504638672 2.0500001907348633 C 98.40665435791016 2.043333053588867 98.07331848144531 2.0399999618530273 97.67998504638672 2.0399999618530273 C 97.61331939697266 2.0399999618530273 97.56998443603516 2.0399999618530273 97.54998779296875 2.0399999618530273 M 91.13998413085938 0.3600006103515625 L 98.32998657226562 0.3600006103515625 C 98.83665466308594 0.3600006103515625 99.28331756591797 0.37000083923339844 99.66998291015625 0.3899993896484375 C 100.04998779296875 0.4033336639404297 100.52664947509766 0.4433326721191406 101.09998321533203 0.5100002288818359 C 101.6733169555664 0.5766658782958984 102.1733169555664 0.6700000762939453 102.59998321533203 0.7900009155273438 C 103.02664947509766 0.9099998474121094 103.47665405273438 1.0900001525878906 103.94998168945312 1.3299999237060547 C 104.4233169555664 1.5699996948242188 104.80998229980469 1.85333251953125 105.1099853515625 2.1800003051757812 C 105.40998840332031 2.506667137145996 105.65998840332031 2.923333168029785 105.8599853515625 3.4300003051757812 C 106.05998229980469 3.9300003051757812 106.15998840332031 4.49666690826416 106.15998840332031 5.130000114440918 C 106.15998840332031 5.770000457763672 106.06998443603516 6.34666633605957 105.88998413085938 6.859999656677246 C 105.7099838256836 7.366666793823242 105.47665405273438 7.789999961853027 105.18998718261719 8.130000114440918 C 104.90998840332031 8.470000267028809 104.53665161132812 8.763333320617676 104.06998443603516 9.010000228881836 C 103.6099853515625 9.263333320617676 103.15665435791016 9.456666946411133 102.7099838256836 9.59000015258789 C 102.26998901367188 9.723333358764648 101.73664855957031 9.826666831970215 101.1099853515625 9.899999618530273 C 100.48332214355469 9.979999542236328 99.9233169555664 10.030000686645508 99.42998504638672 10.050000190734863 C 98.92998504638672 10.069999694824219 98.34998321533203 10.079999923706055 97.68998718261719 10.079999923706055 L 96.74998474121094 10.079999923706055 L 96.74998474121094 16.31999969482422 L 99.67998504638672 16.31999969482422 L 99.67998504638672 18 L 91.13998413085938 18 L 91.13998413085938 16.31999969482422 L 93.97998809814453 16.31999969482422 L 93.97998809814453 2.0399999618530273 L 91.13998413085938 2.0399999618530273 L 91.13998413085938 0.3600006103515625 ZM 114.39108276367188 18 L 106.94107818603516 18 L 106.94107818603516 16.690000534057617 L 109.2310791015625 16.690000534057617 L 109.2310791015625 6.739999771118164 L 106.94107818603516 6.739999771118164 L 106.94107818603516 5.430000305175781 L 111.39107513427734 5.229999542236328 L 111.70108032226562 7.970000267028809 C 111.7944107055664 7.649999618530273 111.92774200439453 7.3333330154418945 112.10108184814453 7.020000457763672 C 112.2744140625 6.706666946411133 112.49441528320312 6.396666526794434 112.76107788085938 6.090000152587891 C 113.03440856933594 5.789999961853027 113.37107849121094 5.546667098999023 113.77108001708984 5.359999656677246 C 114.17108154296875 5.180000305175781 114.60774230957031 5.090000152587891 115.0810775756836 5.090000152587891 C 115.71440887451172 5.090000152587891 116.25774383544922 5.263333320617676 116.71107482910156 5.609999656677246 C 117.17108154296875 5.9633331298828125 117.40107727050781 6.460000038146973 117.40107727050781 7.100000381469727 C 117.40107727050781 7.7133331298828125 117.22107696533203 8.186666488647461 116.86107635498047 8.520000457763672 C 116.50774383544922 8.853333473205566 116.0877456665039 9.020000457763672 115.60107421875 9.020000457763672 C 115.14774322509766 9.020000457763672 114.75774383544922 8.880000114440918 114.43107604980469 8.600000381469727 C 114.10440826416016 8.319999694824219 113.94107818603516 7.939999580383301 113.94107818603516 7.460000038146973 C 113.94107818603516 7.300000190734863 113.9810791015625 7.133333206176758 114.06108093261719 6.960000038146973 C 114.13441467285156 6.7866668701171875 114.21107482910156 6.65333366394043 114.29107666015625 6.560000419616699 L 114.42108154296875 6.430000305175781 C 113.95441436767578 6.430000305175781 113.54107666015625 6.576666831970215 113.18107604980469 6.869999885559082 C 112.82107543945312 7.163332939147949 112.54107666015625 7.553333282470703 112.34107971191406 8.039999961853027 C 112.14107513427734 8.526666641235352 111.99441528320312 9.039999961853027 111.90107727050781 9.579999923706055 C 111.80107879638672 10.119999885559082 111.7510757446289 10.680000305175781 111.7510757446289 11.260000228881836 L 111.7510757446289 16.690000534057617 L 114.39108276367188 16.690000534057617 L 114.39108276367188 18 ZM 126.34014129638672 7.199999809265137 C 126.34014129638672 7.199999809265137 126.21014404296875 7.079999923706055 125.95014190673828 6.840000152587891 C 125.6834716796875 6.600000381469727 125.1634750366211 6.479999542236328 124.39014434814453 6.479999542236328 C 123.61680603027344 6.479999542236328 122.96680450439453 6.720000267028809 122.44013977050781 7.199999809265137 C 121.9134750366211 7.680000305175781 121.53680419921875 8.316666603088379 121.31014251708984 9.109999656677246 C 121.0768051147461 9.896666526794434 120.96014404296875 10.813333511352539 120.96014404296875 11.860000610351562 C 120.96014404296875 13.360000610351562 121.2701416015625 14.563333511352539 121.89014434814453 15.470000267028809 C 122.50347137451172 16.376667022705078 123.34680938720703 16.829999923706055 124.4201431274414 16.829999923706055 C 125.46680450439453 16.829999923706055 126.29347229003906 16.373332977294922 126.90013885498047 15.460000038146973 C 127.50013732910156 14.553333282470703 127.80014038085938 13.353333473205566 127.80014038085938 11.860000610351562 C 127.80014038085938 10.80666732788086 127.68680572509766 9.886666297912598 127.46014404296875 9.100000381469727 C 127.23347473144531 8.313333511352539 126.86013793945312 7.680000305175781 126.34014129638672 7.199999809265137 M 124.4201431274414 18.31999969482422 C 122.54680633544922 18.31999969482422 121.05347442626953 17.696666717529297 119.94013977050781 16.450000762939453 C 118.8334732055664 15.203332901000977 118.28014373779297 13.623332977294922 118.28014373779297 11.710000038146973 C 118.28014373779297 10.456666946411133 118.51680755615234 9.333333015441895 118.99014282226562 8.34000015258789 C 119.47013854980469 7.340000152587891 120.17681121826172 6.546667098999023 121.11013793945312 5.960000038146973 C 122.05014038085938 5.380000114440918 123.14347076416016 5.090000152587891 124.39014434814453 5.090000152587891 C 125.33013916015625 5.090000152587891 126.18680572509766 5.260000228881836 126.96014404296875 5.600000381469727 C 127.73347473144531 5.939999580383301 128.37680053710938 6.4066667556762695 128.89013671875 7 C 129.40347290039062 7.5933332443237305 129.79681396484375 8.289999961853027 130.0701446533203 9.09000015258789 C 130.3501434326172 9.896666526794434 130.49014282226562 10.770000457763672 130.49014282226562 11.710000038146973 C 130.49014282226562 12.949999809265137 130.25347900390625 14.066666603088379 129.78013610839844 15.059999465942383 C 129.3068084716797 16.053333282470703 128.6068115234375 16.843334197998047 127.68014526367188 17.43000030517578 C 126.74681091308594 18.023332595825195 125.66014099121094 18.31999969482422 124.4201431274414 18.31999969482422 ZM 139.12295532226562 16.690000534057617 L 139.12295532226562 18 L 131.39295959472656 18 L 131.39295959472656 16.690000534057617 L 133.67295837402344 16.690000534057617 L 133.67295837402344 6.739999771118164 L 131.39295959472656 6.739999771118164 L 131.39295959472656 5.430000305175781 L 133.67295837402344 5.430000305175781 C 133.67295837402344 3.369999885559082 134.00961303710938 1.8600006103515625 134.68295288085938 0.8999996185302734 C 135.35629272460938 -0.06666755676269531 136.49295043945312 -0.5499992370605469 138.09295654296875 -0.5499992370605469 C 139.359619140625 -0.5499992370605469 140.34295654296875 -0.29666709899902344 141.04295349121094 0.20999908447265625 C 141.74961853027344 0.7166671752929688 142.1029510498047 1.3033332824707031 142.1029510498047 1.9699993133544922 C 142.1029510498047 2.5833330154418945 141.93295288085938 3.073333740234375 141.59295654296875 3.439999580383301 C 141.25961303710938 3.8000001907348633 140.84295654296875 3.979999542236328 140.34295654296875 3.979999542236328 C 139.92295837402344 3.979999542236328 139.55294799804688 3.8299999237060547 139.2329559326172 3.5299997329711914 C 138.91961669921875 3.229999542236328 138.76295471191406 2.8533334732055664 138.76295471191406 2.3999996185302734 C 138.76295471191406 2.119999885559082 138.88294982910156 1.8366661071777344 139.12295532226562 1.5499992370605469 C 139.35629272460938 1.2566661834716797 139.66961669921875 1.0599994659423828 140.06295776367188 0.9599990844726562 C 139.88961791992188 0.7933330535888672 139.64962768554688 0.6633338928222656 139.34295654296875 0.5699996948242188 C 139.03628540039062 0.4766674041748047 138.7362823486328 0.43000030517578125 138.4429473876953 0.43000030517578125 C 137.71629333496094 0.43000030517578125 137.14962768554688 0.6733341217041016 136.74295043945312 1.1599998474121094 C 136.32962036132812 1.64666748046875 136.12295532226562 2.4033336639404297 136.12295532226562 3.4300003051757812 L 136.12295532226562 5.430000305175781 L 139.9529571533203 5.430000305175781 L 139.86294555664062 6.739999771118164 L 136.1929473876953 6.739999771118164 L 136.1929473876953 16.690000534057617 L 139.12295532226562 16.690000534057617 ZM 143.63389587402344 10.280000686645508 L 150.01388549804688 10.280000686645508 C 149.98056030273438 9.146666526794434 149.67056274414062 8.229999542236328 149.08389282226562 7.529999732971191 C 148.4905548095703 6.829999923706055 147.76722717285156 6.479999542236328 146.9138946533203 6.479999542236328 C 146.06056213378906 6.479999542236328 145.3238983154297 6.829999923706055 144.70388793945312 7.529999732971191 C 144.08389282226562 8.229999542236328 143.7272186279297 9.146666526794434 143.63389587402344 10.280000686645508 M 140.87388610839844 11.869999885559082 C 140.87388610839844 11.170000076293945 140.95388793945312 10.486666679382324 141.1138916015625 9.819999694824219 C 141.2805633544922 9.15333366394043 141.5305633544922 8.536666870117188 141.8638916015625 7.970000267028809 C 142.20388793945312 7.396666526794434 142.6072235107422 6.896666526794434 143.0738983154297 6.470000267028809 C 143.54055786132812 6.0366668701171875 144.10055541992188 5.699999809265137 144.75389099121094 5.460000038146973 C 145.4005584716797 5.2133331298828125 146.09722900390625 5.090000152587891 146.84388732910156 5.090000152587891 C 147.64389038085938 5.090000152587891 148.38722229003906 5.229999542236328 149.07388305664062 5.510000228881836 C 149.76055908203125 5.789999961853027 150.3638916015625 6.196666717529297 150.88389587402344 6.729999542236328 C 151.397216796875 7.270000457763672 151.80722045898438 7.949999809265137 152.1138916015625 8.770000457763672 C 152.4138946533203 9.59666633605957 152.57388305664062 10.520000457763672 152.59388732910156 11.539999961853027 L 143.55389404296875 11.539999961853027 L 143.55389404296875 11.639999389648438 C 143.55389404296875 12.30666732788086 143.62722778320312 12.930000305175781 143.77389526367188 13.510000228881836 C 143.9138946533203 14.09000015258789 144.13055419921875 14.609999656677246 144.42388916015625 15.069999694824219 C 144.71055603027344 15.529999732971191 145.09388732910156 15.893333435058594 145.5738983154297 16.15999984741211 C 146.05389404296875 16.426666259765625 146.6072235107422 16.559999465942383 147.23388671875 16.559999465942383 C 148.04722595214844 16.559999465942383 148.81056213378906 16.30666732788086 149.52389526367188 15.800000190734863 C 150.2372283935547 15.293333053588867 150.72055053710938 14.576666831970215 150.97389221191406 13.649999618530273 L 152.34388732910156 14.09000015258789 C 152.0372314453125 15.376667022705078 151.41722106933594 16.40333366394043 150.48388671875 17.170000076293945 C 149.54388427734375 17.93666648864746 148.37722778320312 18.31999969482422 146.98388671875 18.31999969482422 C 146.0305633544922 18.31999969482422 145.16055297851562 18.136667251586914 144.37388610839844 17.770000457763672 C 143.58721923828125 17.40999984741211 142.9405517578125 16.9233341217041 142.4338836669922 16.309999465942383 C 141.9338836669922 15.703332901000977 141.54722595214844 15.020000457763672 141.27389526367188 14.260000228881836 C 141.00721740722656 13.49333381652832 140.87388610839844 12.696666717529297 140.87388610839844 11.869999885559082 ZM 159.50045776367188 18.31999969482422 C 158.89378356933594 18.31999969482422 158.3037872314453 18.260000228881836 157.73045349121094 18.139999389648438 C 157.15711975097656 18.020000457763672 156.61378479003906 17.843334197998047 156.10044860839844 17.610000610351562 C 155.58712768554688 17.3700008392334 155.1771240234375 17.036666870117188 154.87045288085938 16.610000610351562 C 154.56378173828125 16.183332443237305 154.4104461669922 15.696666717529297 154.4104461669922 15.149999618530273 C 154.4104461669922 14.643333435058594 154.57044982910156 14.226666450500488 154.8904571533203 13.899999618530273 C 155.21044921875 13.573333740234375 155.5837860107422 13.40999984741211 156.0104522705078 13.40999984741211 C 156.45045471191406 13.40999984741211 156.82379150390625 13.530000686645508 157.1304473876953 13.770000457763672 C 157.43711853027344 14.010000228881836 157.5904541015625 14.359999656677246 157.5904541015625 14.819999694824219 C 157.5904541015625 15.220000267028809 157.47378540039062 15.550000190734863 157.24044799804688 15.809999465942383 C 157.0071258544922 16.0766658782959 156.74044799804688 16.209999084472656 156.44046020507812 16.209999084472656 C 156.74044799804688 16.43000030517578 157.14712524414062 16.610000610351562 157.6604461669922 16.75 C 158.1737823486328 16.89666748046875 158.68711853027344 16.969999313354492 159.20045471191406 16.969999313354492 C 159.8004608154297 16.969999313354492 160.33712768554688 16.90999984741211 160.81045532226562 16.790000915527344 C 161.28378295898438 16.676666259765625 161.68711853027344 16.459999084472656 162.02044677734375 16.139999389648438 C 162.36045837402344 15.819999694824219 162.53045654296875 15.40999984741211 162.53045654296875 14.90999984741211 C 162.53045654296875 14.529999732971191 162.41378784179688 14.193333625793457 162.18045043945312 13.899999618530273 C 161.9537811279297 13.606666564941406 161.65045166015625 13.376667022705078 161.27044677734375 13.210000038146973 C 160.89712524414062 13.036666870117188 160.470458984375 12.866666793823242 159.99044799804688 12.699999809265137 C 159.5104522705078 12.533332824707031 159.02044677734375 12.383333206176758 158.52044677734375 12.25 C 158.02044677734375 12.123332977294922 157.53045654296875 11.956666946411133 157.0504608154297 11.75 C 156.57044982910156 11.543333053588867 156.14378356933594 11.313333511352539 155.77044677734375 11.059999465942383 C 155.3904571533203 10.813333511352539 155.08712768554688 10.483333587646484 154.86045837402344 10.069999694824219 C 154.6271209716797 9.66333293914795 154.5104522705078 9.193333625793457 154.5104522705078 8.65999984741211 C 154.5104522705078 8.126667022705078 154.6271209716797 7.649999618530273 154.86045837402344 7.229999542236328 C 155.08712768554688 6.810000419616699 155.3771209716797 6.470000267028809 155.73045349121094 6.210000038146973 C 156.0837860107422 5.943333625793457 156.48712158203125 5.723333358764648 156.94046020507812 5.550000190734863 C 157.39378356933594 5.376667022705078 157.82711791992188 5.256667137145996 158.24044799804688 5.189999580383301 C 158.65379333496094 5.123332977294922 159.0504608154297 5.090000152587891 159.43045043945312 5.090000152587891 C 159.9971160888672 5.090000152587891 160.56712341308594 5.149999618530273 161.1404571533203 5.270000457763672 C 161.7137908935547 5.396666526794434 162.2471160888672 5.576666831970215 162.74044799804688 5.810000419616699 C 163.24044799804688 6.0366668701171875 163.64712524414062 6.336667060852051 163.96044921875 6.710000038146973 C 164.27378845214844 7.090000152587891 164.43045043945312 7.506667137145996 164.43045043945312 7.960000038146973 C 164.43045043945312 8.479999542236328 164.27711486816406 8.90333366394043 163.970458984375 9.229999542236328 C 163.6704559326172 9.550000190734863 163.31712341308594 9.710000038146973 162.91046142578125 9.710000038146973 C 162.470458984375 9.710000038146973 162.09378051757812 9.576666831970215 161.78045654296875 9.3100004196167 C 161.4671173095703 9.043333053588867 161.31045532226562 8.673333168029785 161.31045532226562 8.199999809265137 C 161.31045532226562 7.973333358764648 161.36712646484375 7.766666412353516 161.48045349121094 7.579999923706055 C 161.59378051757812 7.393333435058594 161.69711303710938 7.263333320617676 161.7904510498047 7.189999580383301 C 161.8837890625 7.116666793823242 162.02044677734375 7.020000457763672 162.20045471191406 6.899999618530273 C 161.4271240234375 6.526666641235352 160.5504608154297 6.340000152587891 159.57044982910156 6.340000152587891 C 158.77044677734375 6.340000152587891 158.0904541015625 6.516666412353516 157.53045654296875 6.869999885559082 C 156.9771270751953 7.216666221618652 156.70045471191406 7.7133331298828125 156.70045471191406 8.359999656677246 C 156.70045471191406 8.65999984741211 156.81712341308594 8.930000305175781 157.0504608154297 9.170000076293945 C 157.27711486816406 9.40999984741211 157.58045959472656 9.600000381469727 157.96044921875 9.739999771118164 C 158.3404541015625 9.886666297912598 158.77044677734375 10.039999961853027 159.25045776367188 10.199999809265137 C 159.73045349121094 10.360000610351562 160.22378540039062 10.510000228881836 160.73045349121094 10.649999618530273 C 161.24378967285156 10.783332824707031 161.74044799804688 10.966667175292969 162.220458984375 11.199999809265137 C 162.70045471191406 11.426666259765625 163.1304473876953 11.676666259765625 163.5104522705078 11.949999809265137 C 163.8837890625 12.223333358764648 164.18711853027344 12.583333969116211 164.4204559326172 13.030000686645508 C 164.65379333496094 13.476666450500488 164.77044677734375 13.979999542236328 164.77044677734375 14.539999961853027 C 164.77044677734375 15.113332748413086 164.66378784179688 15.623332977294922 164.45045471191406 16.06999969482422 C 164.24378967285156 16.510000228881836 163.97378540039062 16.8700008392334 163.6404571533203 17.149999618530273 C 163.30711364746094 17.43000030517578 162.90711975097656 17.65999984741211 162.44046020507812 17.84000015258789 C 161.97378540039062 18.020000457763672 161.50045776367188 18.143333435058594 161.02044677734375 18.209999084472656 C 160.5404510498047 18.28333282470703 160.03378295898438 18.31999969482422 159.50045776367188 18.31999969482422 ZM 167.86795043945312 1.489999771118164 C 167.86795043945312 1.0033340454101562 168.03794860839844 0.5900001525878906 168.37796020507812 0.25 C 168.71795654296875 -0.09666633605957031 169.12796020507812 -0.2700004577636719 169.6079559326172 -0.2700004577636719 C 170.07461547851562 -0.2700004577636719 170.48129272460938 -0.09666633605957031 170.8279571533203 0.25 C 171.17462158203125 0.5966663360595703 171.3479461669922 1.010000228881836 171.3479461669922 1.489999771118164 C 171.3479461669922 1.9566669464111328 171.17462158203125 2.359999656677246 170.8279571533203 2.6999998092651367 C 170.48129272460938 3.0399999618530273 170.07461547851562 3.2100000381469727 169.6079559326172 3.2100000381469727 C 169.12796020507812 3.2100000381469727 168.71795654296875 3.0399999618530273 168.37796020507812 2.6999998092651367 C 168.03794860839844 2.359999656677246 167.86795043945312 1.9566669464111328 167.86795043945312 1.489999771118164 M 171.0979461669922 5.430000305175781 L 171.0979461669922 16.690000534057617 L 173.38795471191406 16.690000534057617 L 173.38795471191406 18 L 166.30795288085938 18 L 166.30795288085938 16.690000534057617 L 168.5779571533203 16.690000534057617 L 168.5779571533203 6.739999771118164 L 166.28794860839844 6.739999771118164 L 166.28794860839844 5.430000305175781 L 171.0979461669922 5.430000305175781 ZM 182.39093017578125 7.199999809265137 C 182.39093017578125 7.199999809265137 182.26092529296875 7.079999923706055 182.00091552734375 6.840000152587891 C 181.7342529296875 6.600000381469727 181.21424865722656 6.479999542236328 180.44091796875 6.479999542236328 C 179.66758728027344 6.479999542236328 179.01759338378906 6.720000267028809 178.4909210205078 7.199999809265137 C 177.96424865722656 7.680000305175781 177.58758544921875 8.316666603088379 177.3609161376953 9.109999656677246 C 177.12759399414062 9.896666526794434 177.01092529296875 10.813333511352539 177.01092529296875 11.860000610351562 C 177.01092529296875 13.360000610351562 177.3209228515625 14.563333511352539 177.94091796875 15.470000267028809 C 178.55426025390625 16.376667022705078 179.3975830078125 16.829999923706055 180.47091674804688 16.829999923706055 C 181.51759338378906 16.829999923706055 182.34425354003906 16.373332977294922 182.950927734375 15.460000038146973 C 183.55091857910156 14.553333282470703 183.85092163085938 13.353333473205566 183.85092163085938 11.860000610351562 C 183.85092163085938 10.80666732788086 183.7375946044922 9.886666297912598 183.51092529296875 9.100000381469727 C 183.2842559814453 8.313333511352539 182.91091918945312 7.680000305175781 182.39093017578125 7.199999809265137 M 180.47091674804688 18.31999969482422 C 178.59759521484375 18.31999969482422 177.104248046875 17.696666717529297 175.9909210205078 16.450000762939453 C 174.88426208496094 15.203332901000977 174.33091735839844 13.623332977294922 174.33091735839844 11.710000038146973 C 174.33091735839844 10.456666946411133 174.56759643554688 9.333333015441895 175.04092407226562 8.34000015258789 C 175.5209197998047 7.340000152587891 176.2275848388672 6.546667098999023 177.16091918945312 5.960000038146973 C 178.10092163085938 5.380000114440918 179.1942596435547 5.090000152587891 180.44091796875 5.090000152587891 C 181.38092041015625 5.090000152587891 182.2375946044922 5.260000228881836 183.01092529296875 5.600000381469727 C 183.7842559814453 5.939999580383301 184.42758178710938 6.4066667556762695 184.94091796875 7 C 185.45425415039062 7.5933332443237305 185.84759521484375 8.289999961853027 186.1209259033203 9.09000015258789 C 186.4009246826172 9.896666526794434 186.54092407226562 10.770000457763672 186.54092407226562 11.710000038146973 C 186.54092407226562 12.949999809265137 186.30426025390625 14.066666603088379 185.83091735839844 15.059999465942383 C 185.3575897216797 16.053333282470703 184.6575927734375 16.843334197998047 183.73092651367188 17.43000030517578 C 182.79759216308594 18.023332595825195 181.71092224121094 18.31999969482422 180.47091674804688 18.31999969482422 ZM 194.35372924804688 18 L 187.4137420654297 18 L 187.4137420654297 16.690000534057617 L 189.7037353515625 16.690000534057617 L 189.7037353515625 6.739999771118164 L 187.4137420654297 6.739999771118164 L 187.4137420654297 5.430000305175781 L 191.86373901367188 5.229999542236328 L 192.1537322998047 7.779999732971191 C 192.5337371826172 6.9066667556762695 193.1204071044922 6.239999771118164 193.9137420654297 5.779999732971191 C 194.70706176757812 5.319999694824219 195.51040649414062 5.090000152587891 196.32373046875 5.090000152587891 C 196.55706787109375 5.090000152587891 196.7803955078125 5.100000381469727 196.9937286376953 5.119999885559082 C 197.20040893554688 5.146666526794434 197.44039916992188 5.199999809265137 197.71372985839844 5.279999732971191 C 197.98040771484375 5.359999656677246 198.22706604003906 5.466666221618652 198.4537353515625 5.600000381469727 C 198.67373657226562 5.726666450500488 198.89706420898438 5.9066667556762695 199.1237335205078 6.140000343322754 C 199.35040283203125 6.373332977294922 199.5404052734375 6.646666526794434 199.69374084472656 6.960000038146973 C 199.84706115722656 7.266666412353516 199.97039794921875 7.649999618530273 200.06373596191406 8.109999656677246 C 200.16372680664062 8.569999694824219 200.21372985839844 9.079999923706055 200.21372985839844 9.640000343322754 L 200.21372985839844 16.690000534057617 L 202.61373901367188 16.690000534057617 L 202.61373901367188 18 L 195.55374145507812 18 L 195.55374145507812 16.690000534057617 L 197.69374084472656 16.690000534057617 L 197.69374084472656 9.670000076293945 C 197.69374084472656 8.649999618530273 197.4937286376953 7.899999618530273 197.09373474121094 7.420000076293945 C 196.70040893554688 6.933333396911621 196.1537322998047 6.689999580383301 195.4537353515625 6.689999580383301 C 195.00039672851562 6.689999580383301 194.5904083251953 6.773333549499512 194.22373962402344 6.939999580383301 C 193.85707092285156 7.113333702087402 193.55039978027344 7.340000152587891 193.30374145507812 7.619999885559082 C 193.05706787109375 7.9066667556762695 192.85372924804688 8.243332862854004 192.69374084472656 8.630000114440918 C 192.52706909179688 9.016666412353516 192.40707397460938 9.416666984558105 192.333740234375 9.829999923706055 C 192.26040649414062 10.24333381652832 192.22373962402344 10.676666259765625 192.22373962402344 11.130000114440918 L 192.22373962402344 16.690000534057617 L 194.35372924804688 16.690000534057617 L 194.35372924804688 18 ZM 205.8162384033203 15.319999694824219 C 205.8162384033203 15.706666946411133 205.9329071044922 16.023332595825195 206.16622924804688 16.270000457763672 C 206.3928985595703 16.510000228881836 206.73289489746094 16.6299991607666 207.1862335205078 16.6299991607666 C 207.69956970214844 16.6299991607666 208.23289489746094 16.476667404174805 208.78623962402344 16.170000076293945 C 209.33956909179688 15.856666564941406 209.79623413085938 15.466667175292969 210.15623474121094 15 C 210.5162353515625 14.533332824707031 210.69622802734375 14.083333015441895 210.69622802734375 13.649999618530273 L 210.69622802734375 11.15999984741211 C 210.19622802734375 11.646666526794434 209.61956787109375 12.086666107177734 208.9662322998047 12.479999542236328 C 208.31289672851562 12.873332977294922 207.77622985839844 13.163333892822266 207.35623168945312 13.350000381469727 C 206.9362335205078 13.536666870117188 206.57623291015625 13.793333053588867 206.27622985839844 14.119999885559082 C 205.96957397460938 14.446666717529297 205.8162384033203 14.84666633605957 205.8162384033203 15.319999694824219 M 217.35623168945312 14.329999923706055 C 217.35623168945312 15.109999656677246 217.27622985839844 15.770000457763672 217.11624145507812 16.309999465942383 C 216.94956970214844 16.850000381469727 216.70956420898438 17.260000228881836 216.396240234375 17.540000915527344 C 216.08290100097656 17.81999969482422 215.74290466308594 18.020000457763672 215.37623596191406 18.139999389648438 C 215.0095672607422 18.260000228881836 214.57957458496094 18.31999969482422 214.08624267578125 18.31999969482422 C 213.5662384033203 18.31999969482422 213.07957458496094 18.21666717529297 212.62623596191406 18.010000228881836 C 212.1728973388672 17.809999465942383 211.78289794921875 17.483333587646484 211.45623779296875 17.030000686645508 C 211.13623046875 16.5766658782959 210.94290161132812 16.030000686645508 210.87623596191406 15.390000343322754 C 210.54290771484375 16.23666763305664 209.9762420654297 16.93666648864746 209.17623901367188 17.489999771118164 C 208.37623596191406 18.043333053588867 207.5095672607422 18.31999969482422 206.57623291015625 18.31999969482422 C 205.61624145507812 18.31999969482422 204.83290100097656 18.06333351135254 204.2262420654297 17.549999237060547 C 203.61956787109375 17.036666870117188 203.3162384033203 16.329999923706055 203.3162384033203 15.430000305175781 C 203.3162384033203 14.963333129882812 203.4228973388672 14.536666870117188 203.63623046875 14.149999618530273 C 203.8495635986328 13.763333320617676 204.1295623779297 13.440000534057617 204.4762420654297 13.180000305175781 C 204.82290649414062 12.926666259765625 205.2162322998047 12.683333396911621 205.65623474121094 12.449999809265137 C 206.0962371826172 12.210000038146973 206.54623413085938 12.00666618347168 207.00624084472656 11.84000015258789 C 207.4662322998047 11.673333168029785 207.91622924804688 11.489999771118164 208.35623168945312 11.289999961853027 C 208.79623413085938 11.083333969116211 209.1895751953125 10.880000114440918 209.53623962402344 10.680000305175781 C 209.88290405273438 10.473333358764648 210.16290283203125 10.223333358764648 210.37623596191406 9.930000305175781 C 210.58956909179688 9.636666297912598 210.69622802734375 9.3100004196167 210.69622802734375 8.949999809265137 C 210.69622802734375 8.063333511352539 210.47622680664062 7.40333366394043 210.03623962402344 6.970000267028809 C 209.5962371826172 6.5366668701171875 208.98289489746094 6.319999694824219 208.19622802734375 6.319999694824219 C 207.6428985595703 6.319999694824219 207.11624145507812 6.4066667556762695 206.61624145507812 6.579999923706055 C 206.11624145507812 6.75333309173584 205.7295684814453 6.993332862854004 205.45623779296875 7.300000190734863 C 205.95623779296875 7.300000190734863 206.3529052734375 7.436666488647461 206.646240234375 7.710000038146973 C 206.9395751953125 7.976666450500488 207.0862274169922 8.293333053588867 207.0862274169922 8.65999984741211 C 207.0862274169922 9.15333366394043 206.92623901367188 9.553333282470703 206.60623168945312 9.859999656677246 C 206.27957153320312 10.166666030883789 205.896240234375 10.319999694824219 205.45623779296875 10.319999694824219 C 204.99623107910156 10.319999694824219 204.5928955078125 10.15999984741211 204.24623107910156 9.84000015258789 C 203.89956665039062 9.513333320617676 203.7262420654297 9.043333053588867 203.7262420654297 8.430000305175781 C 203.7262420654297 8.109999656677246 203.82957458496094 7.763333320617676 204.03623962402344 7.390000343322754 C 204.24957275390625 7.016666412353516 204.549560546875 6.65333366394043 204.9362335205078 6.300000190734863 C 205.32290649414062 5.953332901000977 205.8462371826172 5.663332939147949 206.50624084472656 5.430000305175781 C 207.1728973388672 5.203332901000977 207.9029083251953 5.090000152587891 208.69622802734375 5.090000152587891 C 209.3362274169922 5.090000152587891 209.91957092285156 5.159999847412109 210.44622802734375 5.300000190734863 C 210.9662322998047 5.446666717529297 211.4395751953125 5.676666259765625 211.86624145507812 5.989999771118164 C 212.29290771484375 6.310000419616699 212.62289428710938 6.75 212.85623168945312 7.310000419616699 C 213.08956909179688 7.863333702087402 213.20623779296875 8.523333549499512 213.20623779296875 9.289999961853027 L 213.20623779296875 14.680000305175781 C 213.20623779296875 14.986666679382324 213.24623107910156 15.279999732971191 213.32623291015625 15.559999465942383 C 213.39956665039062 15.833333015441895 213.54623413085938 16.08333396911621 213.7662353515625 16.309999465942383 C 213.9795684814453 16.536666870117188 214.25624084472656 16.649999618530273 214.5962371826172 16.649999618530273 C 215.58956909179688 16.649999618530273 216.08624267578125 15.956666946411133 216.08624267578125 14.569999694824219 L 216.08624267578125 12.819999694824219 L 217.35623168945312 12.819999694824219 L 217.35623168945312 14.329999923706055 ZM 222.8238983154297 0.3600006103515625 L 222.8238983154297 16.690000534057617 L 225.34388732910156 16.690000534057617 L 225.34388732910156 18 L 217.6838836669922 18 L 217.6838836669922 16.690000534057617 L 220.30389404296875 16.690000534057617 L 220.30389404296875 1.7999992370605469 L 217.6838836669922 1.7999992370605469 L 217.6838836669922 0.3600006103515625 L 222.8238983154297 0.3600006103515625 ZM 229.18077087402344 10.280000686645508 L 235.56076049804688 10.280000686645508 C 235.52743530273438 9.146666526794434 235.21743774414062 8.229999542236328 234.63076782226562 7.529999732971191 C 234.0374298095703 6.829999923706055 233.31410217285156 6.479999542236328 232.4607696533203 6.479999542236328 C 231.60743713378906 6.479999542236328 230.8707733154297 6.829999923706055 230.25076293945312 7.529999732971191 C 229.63076782226562 8.229999542236328 229.2740936279297 9.146666526794434 229.18077087402344 10.280000686645508 M 226.42076110839844 11.869999885559082 C 226.42076110839844 11.170000076293945 226.50076293945312 10.486666679382324 226.6607666015625 9.819999694824219 C 226.8274383544922 9.15333366394043 227.0774383544922 8.536666870117188 227.4107666015625 7.970000267028809 C 227.75076293945312 7.396666526794434 228.1540985107422 6.896666526794434 228.6207733154297 6.470000267028809 C 229.08743286132812 6.0366668701171875 229.64743041992188 5.699999809265137 230.30076599121094 5.460000038146973 C 230.9474334716797 5.2133331298828125 231.64410400390625 5.090000152587891 232.39076232910156 5.090000152587891 C 233.19076538085938 5.090000152587891 233.93409729003906 5.229999542236328 234.62075805664062 5.510000228881836 C 235.30743408203125 5.789999961853027 235.9107666015625 6.196666717529297 236.43077087402344 6.729999542236328 C 236.944091796875 7.270000457763672 237.35409545898438 7.949999809265137 237.6607666015625 8.770000457763672 C 237.9607696533203 9.59666633605957 238.12075805664062 10.520000457763672 238.14076232910156 11.539999961853027 L 229.10076904296875 11.539999961853027 L 229.10076904296875 11.639999389648438 C 229.10076904296875 12.30666732788086 229.17410278320312 12.930000305175781 229.32077026367188 13.510000228881836 C 229.4607696533203 14.09000015258789 229.67742919921875 14.609999656677246 229.97076416015625 15.069999694824219 C 230.25743103027344 15.529999732971191 230.64076232910156 15.893333435058594 231.1207733154297 16.15999984741211 C 231.60076904296875 16.426666259765625 232.1540985107422 16.559999465942383 232.78076171875 16.559999465942383 C 233.59410095214844 16.559999465942383 234.35743713378906 16.30666732788086 235.07077026367188 15.800000190734863 C 235.7841033935547 15.293333053588867 236.26742553710938 14.576666831970215 236.52076721191406 13.649999618530273 L 237.89076232910156 14.09000015258789 C 237.5841064453125 15.376667022705078 236.96409606933594 16.40333366394043 236.03076171875 17.170000076293945 C 235.09075927734375 17.93666648864746 233.92410278320312 18.31999969482422 232.53076171875 18.31999969482422 C 231.5774383544922 18.31999969482422 230.70742797851562 18.136667251586914 229.92076110839844 17.770000457763672 C 229.13409423828125 17.40999984741211 228.4874267578125 16.9233341217041 227.9807586669922 16.309999465942383 C 227.4807586669922 15.703332901000977 227.09410095214844 15.020000457763672 226.82077026367188 14.260000228881836 C 226.55409240722656 13.49333381652832 226.42076110839844 12.696666717529297 226.42076110839844 11.869999885559082 ZM 245.04733276367188 18.31999969482422 C 244.44065856933594 18.31999969482422 243.8506622314453 18.260000228881836 243.27732849121094 18.139999389648438 C 242.70399475097656 18.020000457763672 242.16065979003906 17.843334197998047 241.64732360839844 17.610000610351562 C 241.13400268554688 17.3700008392334 240.7239990234375 17.036666870117188 240.41732788085938 16.610000610351562 C 240.11065673828125 16.183332443237305 239.9573211669922 15.696666717529297 239.9573211669922 15.149999618530273 C 239.9573211669922 14.643333435058594 240.11732482910156 14.226666450500488 240.4373321533203 13.899999618530273 C 240.75732421875 13.573333740234375 241.1306610107422 13.40999984741211 241.5573272705078 13.40999984741211 C 241.99732971191406 13.40999984741211 242.37066650390625 13.530000686645508 242.6773223876953 13.770000457763672 C 242.98399353027344 14.010000228881836 243.1373291015625 14.359999656677246 243.1373291015625 14.819999694824219 C 243.1373291015625 15.220000267028809 243.02066040039062 15.550000190734863 242.78732299804688 15.809999465942383 C 242.5540008544922 16.0766658782959 242.28732299804688 16.209999084472656 241.98733520507812 16.209999084472656 C 242.28732299804688 16.43000030517578 242.69400024414062 16.610000610351562 243.2073211669922 16.75 C 243.7206573486328 16.89666748046875 244.23399353027344 16.969999313354492 244.74732971191406 16.969999313354492 C 245.3473358154297 16.969999313354492 245.88400268554688 16.90999984741211 246.35733032226562 16.790000915527344 C 246.83065795898438 16.676666259765625 247.23399353027344 16.459999084472656 247.56732177734375 16.139999389648438 C 247.90733337402344 15.819999694824219 248.07733154296875 15.40999984741211 248.07733154296875 14.90999984741211 C 248.07733154296875 14.529999732971191 247.96066284179688 14.193333625793457 247.72732543945312 13.899999618530273 C 247.5006561279297 13.606666564941406 247.19732666015625 13.376667022705078 246.81732177734375 13.210000038146973 C 246.44400024414062 13.036666870117188 246.017333984375 12.866666793823242 245.53732299804688 12.699999809265137 C 245.0573272705078 12.533332824707031 244.56732177734375 12.383333206176758 244.06732177734375 12.25 C 243.56732177734375 12.123332977294922 243.07733154296875 11.956666946411133 242.5973358154297 11.75 C 242.11732482910156 11.543333053588867 241.69065856933594 11.313333511352539 241.31732177734375 11.059999465942383 C 240.9373321533203 10.813333511352539 240.63400268554688 10.483333587646484 240.40733337402344 10.069999694824219 C 240.1739959716797 9.66333293914795 240.0573272705078 9.193333625793457 240.0573272705078 8.65999984741211 C 240.0573272705078 8.126667022705078 240.1739959716797 7.649999618530273 240.40733337402344 7.229999542236328 C 240.63400268554688 6.810000419616699 240.9239959716797 6.470000267028809 241.27732849121094 6.210000038146973 C 241.6306610107422 5.943333625793457 242.03399658203125 5.723333358764648 242.48733520507812 5.550000190734863 C 242.94065856933594 5.376667022705078 243.37399291992188 5.256667137145996 243.78732299804688 5.189999580383301 C 244.20066833496094 5.123332977294922 244.5973358154297 5.090000152587891 244.97732543945312 5.090000152587891 C 245.5439910888672 5.090000152587891 246.11399841308594 5.149999618530273 246.6873321533203 5.270000457763672 C 247.2606658935547 5.396666526794434 247.7939910888672 5.576666831970215 248.28732299804688 5.810000419616699 C 248.78732299804688 6.0366668701171875 249.19400024414062 6.336667060852051 249.50732421875 6.710000038146973 C 249.82066345214844 7.090000152587891 249.97732543945312 7.506667137145996 249.97732543945312 7.960000038146973 C 249.97732543945312 8.479999542236328 249.82398986816406 8.90333366394043 249.517333984375 9.229999542236328 C 249.2173309326172 9.550000190734863 248.86399841308594 9.710000038146973 248.45733642578125 9.710000038146973 C 248.017333984375 9.710000038146973 247.64065551757812 9.576666831970215 247.32733154296875 9.3100004196167 C 247.0139923095703 9.043333053588867 246.85733032226562 8.673333168029785 246.85733032226562 8.199999809265137 C 246.85733032226562 7.973333358764648 246.91400146484375 7.766666412353516 247.02732849121094 7.579999923706055 C 247.14065551757812 7.393333435058594 247.24398803710938 7.263333320617676 247.3373260498047 7.189999580383301 C 247.4306640625 7.116666793823242 247.56732177734375 7.020000457763672 247.74732971191406 6.899999618530273 C 246.9739990234375 6.526666641235352 246.0973358154297 6.340000152587891 245.11732482910156 6.340000152587891 C 244.31732177734375 6.340000152587891 243.6373291015625 6.516666412353516 243.07733154296875 6.869999885559082 C 242.5240020751953 7.216666221618652 242.24732971191406 7.7133331298828125 242.24732971191406 8.359999656677246 C 242.24732971191406 8.65999984741211 242.36399841308594 8.930000305175781 242.5973358154297 9.170000076293945 C 242.82398986816406 9.40999984741211 243.12733459472656 9.600000381469727 243.50732421875 9.739999771118164 C 243.8873291015625 9.886666297912598 244.31732177734375 10.039999961853027 244.79733276367188 10.199999809265137 C 245.27732849121094 10.360000610351562 245.77066040039062 10.510000228881836 246.27732849121094 10.649999618530273 C 246.79066467285156 10.783332824707031 247.28732299804688 10.966667175292969 247.767333984375 11.199999809265137 C 248.24732971191406 11.426666259765625 248.6773223876953 11.676666259765625 249.0573272705078 11.949999809265137 C 249.4306640625 12.223333358764648 249.73399353027344 12.583333969116211 249.9673309326172 13.030000686645508 C 250.20066833496094 13.476666450500488 250.31732177734375 13.979999542236328 250.31732177734375 14.539999961853027 C 250.31732177734375 15.113332748413086 250.21066284179688 15.623332977294922 249.99732971191406 16.06999969482422 C 249.79066467285156 16.510000228881836 249.52066040039062 16.8700008392334 249.1873321533203 17.149999618530273 C 248.85398864746094 17.43000030517578 248.45399475097656 17.65999984741211 247.98733520507812 17.84000015258789 C 247.52066040039062 18.020000457763672 247.04733276367188 18.143333435058594 246.56732177734375 18.209999084472656 C 246.0873260498047 18.28333282470703 245.58065795898438 18.31999969482422 245.04733276367188 18.31999969482422 Z" transform="matrix(1.4718616008758545, 0, 0, 1.4718616008758545, 16.32038688659668, 205.1947784423828)" style="fill: rgb(51, 51, 51); white-space: pre; color: rgb(51, 51, 51);"/></svg>