<?xml version="1.0" encoding="utf-8"?>
<svg id="master-artboard" viewBox="0 0 1400 980" version="1.1" xmlns="http://www.w3.org/2000/svg" x="0px" y="0px" style="enable-background:new 0 0 1400 980;" width="1400px" height="980px"><rect id="ee-background" x="0" y="0" width="1400" height="980" style="fill: white; fill-opacity: 1; pointer-events: none;"/>























































































































<path d="M 260.79998779296875 86.19999694824219" style="fill: rgb(23, 168, 247); fill-opacity: 1; stroke: rgb(0, 0, 0); stroke-opacity: 1; stroke-width: 0; paint-order: fill;"/><g transform="matrix(0.6494382619857788, 0, 0, 0.6494382619857788, -87.97896807613711, -107.250963073266)"><g transform="matrix(1.0542503595352173, 0, 0, 1.0542503595352173, -392.9222717285156, -239.22006225585938)"><g transform="matrix(1, 0, 0, 1, 0, 0)">
	<g>
		<path class="st10" d="M988.5,430.7c0,0-47.2,17.4-74.1,21.9c0,18.4,0.3,36.3,0.3,53.3c24.6-4.1,49.2-11.6,73.9-22.8l-19.7-15.6&#10;&#9;&#9;&#9;L988.5,430.7z" style="fill: rgb(218, 106, 18);"/>
	</g>
	<g>
		<path class="st11" d="M914.4,452.6c11.7,2.7,23.9,4.4,35.6,6.3c0,20.6,0,40.6,0,59.4c-11.7,0-23.9-0.8-35.6-3&#10;&#9;&#9;&#9;C914.4,495.6,914.4,474.7,914.4,452.6z" style="fill: rgb(181, 77, 24);"/>
	</g>
	<g>
		<g>
			<path class="st10" d="M685.1,718.7c0,0,47.2-17.4,74.1-21.9c0-18.4-0.3-36.3-0.3-53.3c-24.6,4.1-49.2,11.6-73.9,22.8l19.7,15.6&#10;&#9;&#9;&#9;&#9;L685.1,718.7z" style="fill: rgb(218, 106, 18);"/>
		</g>
		<g>
			<path class="st11" d="M759.3,696.7c-11.7-2.7-23.9-4.4-35.6-6.3c0-20.6,0-40.6,0-59.4c11.7,0,23.9,0.8,35.6,3&#10;&#9;&#9;&#9;&#9;C759.3,653.7,759.3,674.7,759.3,696.7z" style="fill: rgb(181, 77, 24);"/>
		</g>
	</g>
	<g>
		<path class="st11" d="M724,520.7c88.1,26.2,176.2,97.1,264.3,90.1c0-18.3,0-51.3,0-71.6c-44.1,1.1-88.1-3.3-132.2-17.7&#10;&#9;&#9;&#9;c-44.1-14.6-88.1-52.3-132.2-61.5C724,474.9,724,503.9,724,520.7z" style="fill: rgb(181, 77, 24);"/>
	</g>
	<g>
		<path class="st11" d="M949.7,629.7c-88.1-26.2-175.9-96-264-89c0,18.3,0,51.4,0,71.6c44.1-1.1,87.8,0.8,131.9,15.2&#10;&#9;&#9;&#9;c44.1,14.6,88.1,52.3,132.2,61.5C949.7,674.2,949.7,646.5,949.7,629.7z" style="fill: rgb(181, 77, 24);"/>
	</g>
	<g>
		<path class="st12" d="M685.6,612.4c50.4-18.9,100.9-11.4,151.3-1.9c50.4,9.1,100.9,20.3,151.3,0.4c0-24.7,0-43.1,0-71.6&#10;&#9;&#9;&#9;c-50.4,19-100.9,11.6-151.3,2.1c-50.4-9.1-100.9-20.4-151.3-0.6C685.6,565.4,685.6,583.9,685.6,612.4z" style="fill: rgb(229, 120, 8);"/>
	</g>
	<g>
		<path class="st13" d="M976.5,555.6" style="fill: none;"/>
	</g>
	<g>
		<path class="st13" d="M697.5,549.1" style="fill: none;"/>
	</g>
	<g>
		<path class="st12" d="M724,519.6c37.7-14.1,75.3-8.5,113-1.4c37.7,6.8,75.3,15.1,113,0.3c0-18.4,0-38.2,0-59.4&#10;&#9;&#9;&#9;c-37.7,14.2-75.3,8.7-113,1.6c-37.7-6.8-75.3-15.2-113-0.4C724,478.5,724,498.3,724,519.6z" style="fill: rgb(229, 120, 8);"/>
	</g>
	<g>
		<path class="st12" d="M723.8,690.3c37.7-14.1,75.3-8.5,113-1.4c37.7,6.8,75.3,15.1,113,0.3c0-18.4,0-38.2,0-59.4&#10;&#9;&#9;&#9;c-37.7,14.2-75.3,8.7-113,1.6c-37.7-6.8-75.3-15.2-113-0.4C723.8,649.3,723.8,669.1,723.8,690.3z" style="fill: rgb(229, 120, 8);"/>
	</g>
</g></g></g><g transform="matrix(2.7864046096801753, 0, 0, 2.7864046096801753, -3492.152124814418, -1723.198671203149)"><g transform="matrix(1, 0, 0, 1, 0, 0)">
	<g>
		<g>
			<path class="st4" d="M1280.5,630.1c4.3-1.4,9,3.6,7,7.7c-1.2,4.2-7.4,5.3-10,1.8C1274.7,636.7,1276.4,631,1280.5,630.1&#10;&#9;&#9;&#9;&#9;L1280.5,630.1z" style="fill: rgb(28, 116, 188);"/>
		</g>
	</g>
	<g>
		<g>
			<path class="st4" d="M1271.1,643.9c3-1.2,6.3-1,9.5-1c3,0.1,6.1-0.3,9,0.2c2.8,0.4,5.3,2,6,4.9c0.8,3,0.4,6.3,0.4,9.4&#10;&#9;&#9;&#9;&#9;c0,3.4,0,6.8,0,10.3c0,1.9-0.3,5.9-3.4,4.5c-2.6-1.2-1.7-6-1.7-8.2c0-3.7,0-7.5,0-11.2c-0.6,0-1.2,0-1.8,0c0,1,0,2,0,3&#10;&#9;&#9;&#9;&#9;c0,2.3,0,4.6,0,6.8c0,4.3,0,8.6,0,12.9c0,4.3,0,8.6,0,12.9c0,2,0,4,0,6.1c0,1.9,0.2,4.1,0,6c-0.3,1.9-2.5,2.8-4.3,2.5&#10;&#9;&#9;&#9;&#9;c-3.1-0.6-2.2-4.7-2.3-7c0-4.3,0-8.7,0-13c0-2.3,0-4.6,0-6.9c0-1,0-2,0-3.1c0-1.1-0.6-0.8-1.5-0.8c0,6.2,0,12.4,0,18.7&#10;&#9;&#9;&#9;&#9;c0,2.9,0.2,5.8-0.1,8.7c-0.2,1.1-0.3,2.5-1.3,3c-0.8,0.4-1.8,0.6-2.7,0.4c-1.6-0.3-2.8-1.5-2.7-3.2c0-3.3,0-6.6,0-9.8&#10;&#9;&#9;&#9;&#9;c0-6.3,0-12.7,0-19c0-3,0-6.1,0-9.1c0-1.5,0-3,0-4.6c0-0.8,0-1.5,0-2.3c0-0.7,0.4-2.3-0.5-2.3c-0.9,0-1-0.3-1,0.7&#10;&#9;&#9;&#9;&#9;c0,0.8,0,1.5,0,2.2c0,1.5,0,3,0,4.5c0,2.9,0.3,6-0.1,8.9c-0.2,1.5-1.1,3.5-3,3.1c-2.8,0.3-2-4.8-2-6.3c0-3,0-6.1,0-9.1&#10;&#9;&#9;&#9;&#9;c0-2.8-0.5-6.1,0.2-8.9C1268.2,646.2,1269.4,644.6,1271.1,643.9C1275,642.4,1271.1,643.9,1271.1,643.9z" style="fill: rgb(28, 116, 188);"/>
		</g>
	</g>
</g></g><path d="M 660.2256469726562 320.3999938964844 C 658.3456420898438 320.3999938964844 656.8589477539062 321.02667236328125 655.765625 322.2799987792969 C 654.678955078125 323.5333251953125 654.1356201171875 325.25 654.1356201171875 327.42999267578125 C 654.1356201171875 329.6766662597656 654.6589965820312 331.4100036621094 655.7056274414062 332.6300048828125 C 656.7589721679688 333.8500061035156 658.2589721679688 334.4599914550781 660.2056274414062 334.4599914550781 C 661.3989868164062 334.4599914550781 662.7623291015625 334.2466735839844 664.295654296875 333.82000732421875 L 664.295654296875 335.57000732421875 C 663.1090087890625 336.010009765625 661.642333984375 336.2300109863281 659.8956298828125 336.2300109863281 C 657.3756713867188 336.2300109863281 655.428955078125 335.4666748046875 654.0556640625 333.94000244140625 C 652.6823120117188 332.40667724609375 651.9956665039062 330.2300109863281 651.9956665039062 327.4100036621094 C 651.9956665039062 325.6433410644531 652.3289794921875 324.0966796875 652.9956665039062 322.7699890136719 C 653.6556396484375 321.4433288574219 654.6056518554688 320.4200134277344 655.8456420898438 319.70001220703125 C 657.09228515625 318.9800109863281 658.5589599609375 318.6199951171875 660.2456665039062 318.6199951171875 C 662.045654296875 318.6199951171875 663.6189575195312 318.95001220703125 664.9656372070312 319.6099853515625 L 664.1156616210938 321.32000732421875 C 662.8223266601562 320.7066650390625 661.525634765625 320.3999938964844 660.2256469726562 320.3999938964844 ZM 667.4518432617188 334.760009765625 C 667.4518432617188 334.23333740234375 667.5718383789062 333.836669921875 667.8118286132812 333.57000732421875 C 668.0518188476562 333.2966613769531 668.3917846679688 333.1600036621094 668.831787109375 333.1600036621094 C 669.28515625 333.1600036621094 669.6384887695312 333.2966613769531 669.8917846679688 333.57000732421875 C 670.1517944335938 333.836669921875 670.2817993164062 334.23333740234375 670.2817993164062 334.760009765625 C 670.2817993164062 335.26666259765625 670.1517944335938 335.65667724609375 669.8917846679688 335.92999267578125 C 669.6318359375 336.2033386230469 669.2785034179688 336.3399963378906 668.831787109375 336.3399963378906 C 668.4384765625 336.3399963378906 668.1084594726562 336.2166748046875 667.841796875 335.9700012207031 C 667.581787109375 335.72332763671875 667.4518432617188 335.32000732421875 667.4518432617188 334.760009765625 ZM 684.1966552734375 318.8699951171875 L 686.3466186523438 318.8699951171875 L 680.1666259765625 336 L 678.1966552734375 336 L 672.056640625 318.8699951171875 L 674.1666259765625 318.8699951171875 L 678.1066284179688 329.95001220703125 C 678.5599975585938 331.22332763671875 678.9199829101562 332.4633483886719 679.1866455078125 333.6700134277344 C 679.4666137695312 332.4033203125 679.8333129882812 331.1400146484375 680.28662109375 329.8800048828125 L 684.1966552734375 318.8699951171875 Z" transform="matrix(1.2632137537002563, 0, 0, 1.2632137537002563, -635.3616943359375, -341.65093994140625)" style="fill: rgb(51, 51, 51); white-space: pre; color: rgb(51, 51, 51);"/><path d="M 916.9055786132812 351.0199890136719 L 922.7255859375 351.0199890136719 L 922.7255859375 359.3599853515625 C 921.8255615234375 359.64666748046875 920.9055786132812 359.86334228515625 919.965576171875 360.010009765625 C 919.0255737304688 360.15667724609375 917.9389038085938 360.2300109863281 916.70556640625 360.2300109863281 C 914.1122436523438 360.2300109863281 912.0922241210938 359.4599914550781 910.6455688476562 357.9200134277344 C 909.1989135742188 356.3800048828125 908.4755859375 354.2166748046875 908.4755859375 351.42999267578125 C 908.4755859375 349.6499938964844 908.8355712890625 348.0899963378906 909.5555419921875 346.75 C 910.2689208984375 345.4100036621094 911.2988891601562 344.38665771484375 912.6455688476562 343.67999267578125 C 913.9855346679688 342.97332763671875 915.5588989257812 342.6199951171875 917.3655395507812 342.6199951171875 C 919.1922607421875 342.6199951171875 920.8955688476562 342.9566650390625 922.4755859375 343.6300048828125 L 921.695556640625 345.3900146484375 C 920.14892578125 344.7300109863281 918.6622314453125 344.3999938964844 917.2355346679688 344.3999938964844 C 915.14892578125 344.3999938964844 913.5189208984375 345.0233459472656 912.3455810546875 346.2699890136719 C 911.1722412109375 347.510009765625 910.5855712890625 349.2300109863281 910.5855712890625 351.42999267578125 C 910.5855712890625 353.74334716796875 911.1522216796875 355.5 912.2855834960938 356.70001220703125 C 913.4122314453125 357.8933410644531 915.0689086914062 358.489990234375 917.2555541992188 358.489990234375 C 918.4422607421875 358.489990234375 919.6022338867188 358.35333251953125 920.7355346679688 358.0799865722656 L 920.7355346679688 352.79998779296875 L 916.9055786132812 352.79998779296875 L 916.9055786132812 351.0199890136719 ZM 926.26171875 358.760009765625 C 926.26171875 358.23333740234375 926.3817138671875 357.836669921875 926.6217041015625 357.57000732421875 C 926.8616943359375 357.2966613769531 927.20166015625 357.1600036621094 927.6416625976562 357.1600036621094 C 928.0950317382812 357.1600036621094 928.4483642578125 357.2966613769531 928.70166015625 357.57000732421875 C 928.961669921875 357.836669921875 929.0916748046875 358.23333740234375 929.0916748046875 358.760009765625 C 929.0916748046875 359.26666259765625 928.961669921875 359.65667724609375 928.70166015625 359.92999267578125 C 928.4417114257812 360.2033386230469 928.08837890625 360.3399963378906 927.6416625976562 360.3399963378906 C 927.2483520507812 360.3399963378906 926.9183349609375 360.2166748046875 926.6516723632812 359.9700012207031 C 926.3916625976562 359.72332763671875 926.26171875 359.32000732421875 926.26171875 358.760009765625 ZM 940.7559814453125 351.0199890136719 L 946.5759887695312 351.0199890136719 L 946.5759887695312 359.3599853515625 C 945.6759643554688 359.64666748046875 944.7559814453125 359.86334228515625 943.8159790039062 360.010009765625 C 942.8759765625 360.15667724609375 941.789306640625 360.2300109863281 940.5559692382812 360.2300109863281 C 937.962646484375 360.2300109863281 935.942626953125 359.4599914550781 934.4959716796875 357.9200134277344 C 933.04931640625 356.3800048828125 932.3259887695312 354.2166748046875 932.3259887695312 351.42999267578125 C 932.3259887695312 349.6499938964844 932.6859741210938 348.0899963378906 933.4059448242188 346.75 C 934.1193237304688 345.4100036621094 935.1492919921875 344.38665771484375 936.4959716796875 343.67999267578125 C 937.8359375 342.97332763671875 939.4093017578125 342.6199951171875 941.2159423828125 342.6199951171875 C 943.0426025390625 342.6199951171875 944.7459716796875 342.9566650390625 946.3259887695312 343.6300048828125 L 945.5459594726562 345.3900146484375 C 943.9993286132812 344.7300109863281 942.5126342773438 344.3999938964844 941.0859375 344.3999938964844 C 938.9993286132812 344.3999938964844 937.3693237304688 345.0233459472656 936.1959838867188 346.2699890136719 C 935.0226440429688 347.510009765625 934.4359741210938 349.2300109863281 934.4359741210938 351.42999267578125 C 934.4359741210938 353.74334716796875 935.0026245117188 355.5 936.135986328125 356.70001220703125 C 937.2626342773438 357.8933410644531 938.9193115234375 358.489990234375 941.10595703125 358.489990234375 C 942.2926025390625 358.489990234375 943.45263671875 358.35333251953125 944.5859375 358.0799865722656 L 944.5859375 352.79998779296875 L 940.7559814453125 352.79998779296875 L 940.7559814453125 351.0199890136719 ZM 950.1121215820312 358.760009765625 C 950.1121215820312 358.23333740234375 950.2321166992188 357.836669921875 950.4721069335938 357.57000732421875 C 950.7120971679688 357.2966613769531 951.0520629882812 357.1600036621094 951.4920654296875 357.1600036621094 C 951.9454345703125 357.1600036621094 952.2987670898438 357.2966613769531 952.5520629882812 357.57000732421875 C 952.8120727539062 357.836669921875 952.9420776367188 358.23333740234375 952.9420776367188 358.760009765625 C 952.9420776367188 359.26666259765625 952.8120727539062 359.65667724609375 952.5520629882812 359.92999267578125 C 952.2921142578125 360.2033386230469 951.9387817382812 360.3399963378906 951.4920654296875 360.3399963378906 C 951.0987548828125 360.3399963378906 950.7687377929688 360.2166748046875 950.5020751953125 359.9700012207031 C 950.2420654296875 359.72332763671875 950.1121215820312 359.32000732421875 950.1121215820312 358.760009765625 ZM 959.0663452148438 352.8699951171875 L 959.0663452148438 360 L 957.0763549804688 360 L 957.0763549804688 342.8699951171875 L 961.766357421875 342.8699951171875 C 963.873046875 342.8699951171875 965.4263916015625 343.2699890136719 966.4263916015625 344.07000732421875 C 967.4330444335938 344.8766784667969 967.9363403320312 346.0899963378906 967.9363403320312 347.7099914550781 C 967.9363403320312 349.9766540527344 966.786376953125 351.50665283203125 964.4863891601562 352.29998779296875 L 969.1463623046875 360 L 966.786376953125 360 L 962.6363525390625 352.8699951171875 L 959.0663452148438 352.8699951171875 M 959.0663452148438 351.1600036621094 L 961.79638671875 351.1600036621094 C 963.2030639648438 351.1600036621094 964.2330322265625 350.8833312988281 964.8863525390625 350.3299865722656 C 965.54638671875 349.7699890136719 965.8763427734375 348.92999267578125 965.8763427734375 347.80999755859375 C 965.8763427734375 346.6766662597656 965.5396728515625 345.8599853515625 964.8663940429688 345.3599853515625 C 964.19970703125 344.8599853515625 963.1296997070312 344.6099853515625 961.6563720703125 344.6099853515625 L 959.0663452148438 344.6099853515625 L 959.0663452148438 351.1600036621094 Z" transform="matrix(1.2308714389801025, 0.027286486700177193, -0.027286486700177193, 1.2308714389801025, -913.59375, -269.13543701171875)" style="fill: rgb(51, 51, 51); white-space: pre; color: rgb(51, 51, 51);"/></svg>